<?xml version="1.0" encoding="utf-8"?>
<!-- Generator: Adobe Illustrator 16.0.0, SVG Export Plug-In . SVG Version: 6.00 Build 0)  -->
<!DOCTYPE svg PUBLIC "-//W3C//DTD SVG 1.1//EN" "http://www.w3.org/Graphics/SVG/1.1/DTD/svg11.dtd">
<svg version="1.1" id="Layer_1" xmlns="http://www.w3.org/2000/svg" xmlns:xlink="http://www.w3.org/1999/xlink" x="0px" y="0px"
	 width="128px" height="128px" viewBox="0 0 128 128" enable-background="new 0 0 128 128" xml:space="preserve">
<g>
	<g>
		<rect x="88.685" y="28.356" fill="#282D33" width="4.023" height="20.352"/>
	</g>
	<g>
		<polygon fill="#282D33" points="92.708,127.368 0,127.368 0,1.493 65.986,1.493 65.986,5.516 4.023,5.516 4.023,123.345 
			88.685,123.345 88.685,104.053 92.708,104.053 		"/>
	</g>
	<g>
		<g>
			<path fill="#282D33" d="M74.087,10.171L84.088,20.23H74.087V10.171 M70.151,0.632v23.534h23.401L70.151,0.632L70.151,0.632z"/>
		</g>
	</g>
	<g>
		<rect x="13.873" y="27.752" fill="#282D33" width="25.474" height="4.023"/>
	</g>
	<g>
		<rect x="13.408" y="38.876" fill="#282D33" width="60.5" height="4.023"/>
	</g>
	<g>
		<rect x="13.408" y="49.997" fill="#282D33" width="60.5" height="4.023"/>
	</g>
	<g>
		<rect x="13.408" y="61.118" fill="#282D33" width="60.5" height="4.023"/>
	</g>
	<g>
		<rect x="13.408" y="72.237" fill="#282D33" width="39.149" height="4.023"/>
	</g>
	<g>
		<g>
			<polygon fill="#282D33" points="50.92,117.605 57.446,95.4 60.032,92.797 62.886,95.632 61.019,97.512 56.866,111.643 
				70.899,107.476 72.769,105.599 75.619,108.439 73.027,111.041 			"/>
		</g>
		<g>
			<path fill="#282D33" d="M97.901,59.274l11.051,11.11l-34.585,34.767l-11.05-11.108L97.901,59.274 M97.901,53.694L57.765,94.043
				l16.603,16.689l40.136-40.348L97.901,53.694L97.901,53.694z"/>
		</g>
		<g>
			
				<rect x="85.273" y="55.944" transform="matrix(0.709 0.7052 -0.7052 0.709 82.5532 -37.966)" fill="#282D33" width="4.023" height="50.224"/>
		</g>
		<g>
			<path fill="#282D33" d="M123.385,60.438l-2.853-2.838l3.346-3.364l-9.915-9.964l-3.33,3.348l-2.853-2.837l3.615-3.634
				c0.641-0.645,1.514-1.001,2.457-1.001c0.001,0,0.002,0,0.002,0c1.066,0,2.138,0.461,2.939,1.265l9.948,9.998
				c1.571,1.583,1.684,3.951,0.261,5.391L123.385,60.438z"/>
		</g>
		<g>
			<polygon fill="#282D33" points="112.019,75.734 109.166,72.896 117.147,64.874 103.379,51.037 95.417,59.042 92.564,56.206 
				103.379,45.332 122.823,64.874 			"/>
		</g>
	</g>
</g>
</svg>
