<?xml version="1.0" encoding="UTF-8" standalone="no"?>
<!DOCTYPE svg PUBLIC "-//W3C//DTD SVG 1.1//EN" "http://www.w3.org/Graphics/SVG/1.1/DTD/svg11.dtd">
<svg width="300.00" height="300.00" viewBox="0.00 0.00 300.00 300.00" xmlns="http://www.w3.org/2000/svg" xmlns:xlink="http://www.w3.org/1999/xlink">
<g stroke-linecap="round" transform="translate(-468.00, -4774.00)" id="icons_Copy">
<path d="M567.12,4852.38 C567.23,4852.39 567.31,4852.39 567.38,4852.38 C567.61,4852.34 567.80,4852.28 567.96,4852.19 C568.16,4852.07 568.34,4851.91 568.48,4851.72 C568.58,4851.59 568.64,4851.43 568.67,4851.26 C568.68,4851.22 568.68,4851.11 568.67,4850.95 C568.67,4850.91 568.67,4850.87 568.67,4850.83 C568.67,4851.31 568.67,4851.80 568.67,4852.28 C568.68,4852.96 568.68,4859.58 568.40,4863.93 C567.03,4883.35 567.23,4899.81 566.32,4922.09 C565.44,4938.78 563.49,4972.10 562.38,4986.23 C560.88,5000.99 559.51,5009.77 557.68,5018.89 C555.91,5027.09 552.58,5036.75 549.71,5041.95 C547.60,5045.71 544.66,5050.54 542.71,5052.77 C540.45,5055.29 535.48,5058.86 531.97,5059.74 C529.77,5060.25 523.45,5059.70 520.48,5058.26 C517.17,5056.60 511.86,5051.97 509.44,5048.59 C507.26,5045.48 504.79,5039.18 503.93,5035.83 C503.11,5032.53 502.41,5025.36 502.48,5021.96 C502.59,5018.41 504.13,5010.85 505.38,5007.25 C507.54,5001.13 515.88,4987.26 520.69,4981.03 C525.50,4974.83 535.18,4964.46 540.22,4960.10 C548.97,4952.58 563.99,4943.82 566.30,4942.53" fill="none" stroke="rgb(255, 255, 255)" stroke-width="10.33" stroke-opacity="1.00" stroke-linejoin="round"/>
<path d="M580.32,4935.65 C580.32,4935.65 584.91,4935.85 584.91,4935.85" fill="none" stroke="rgb(255, 255, 255)" stroke-width="10.33" stroke-opacity="1.00" stroke-linejoin="round"/>
<path d="M567.12,4793.49 C567.12,4793.32 567.12,4793.15 567.12,4792.98 C567.12,4792.72 567.12,4792.46 567.12,4792.20 C567.12,4792.12 567.12,4792.03 567.12,4791.94 C567.12,4791.86 567.12,4791.77 567.12,4791.68 C567.12,4791.53 567.12,4791.37 567.12,4791.22 C567.12,4791.09 567.12,4790.96 567.12,4790.83 C567.12,4790.72 567.12,4791.06 567.12,4791.17 C567.12,4798.73 567.12,4811.36 567.12,4816.45 C566.93,4814.23 568.40,4800.96 568.64,4789.68 C568.65,4788.88 568.66,4788.09 568.67,4787.29" fill="none" stroke="rgb(255, 255, 255)" stroke-width="10.33" stroke-opacity="1.00" stroke-linejoin="round"/>
<path d="M553.18,4950.78 C553.20,4950.97 553.20,4951.10 553.18,4951.17 C553.10,4951.36 552.97,4951.49 552.79,4951.56 C552.73,4951.58 552.52,4951.58 552.17,4951.56 C552.09,4951.55 551.97,4951.55 551.78,4951.56 C551.73,4951.56 551.68,4951.56 551.63,4951.56 C551.64,4951.55 551.67,4951.55 551.72,4951.56 C552.08,4951.56 552.33,4951.53 552.50,4951.46 C553.15,4951.17 571.41,4942.22 577.97,4939.26 C578.19,4939.16 578.27,4939.13 578.36,4939.09" fill="none" stroke="rgb(255, 255, 255)" stroke-width="10.33" stroke-opacity="1.00" stroke-linejoin="round"/>
<path d="M597.17,4932.36 C597.17,4932.36 603.07,4930.73 603.07,4930.73" fill="none" stroke="rgb(255, 255, 255)" stroke-width="10.33" stroke-opacity="1.00" stroke-linejoin="round"/>
<path d="M621.45,4926.78 C621.45,4926.78 642.50,4923.80 642.50,4923.80" fill="none" stroke="rgb(255, 255, 255)" stroke-width="10.33" stroke-opacity="1.00" stroke-linejoin="round"/>
<path d="M660.45,4922.40 C660.45,4922.40 681.91,4922.02 681.91,4922.02" fill="none" stroke="rgb(255, 255, 255)" stroke-width="10.33" stroke-opacity="1.00" stroke-linejoin="round"/>
<path d="M698.71,4922.32 C712.97,4922.99 733.62,4923.92 733.90,4923.66 C734.05,4923.52 734.25,4923.04 734.48,4922.24" fill="none" stroke="rgb(255, 255, 255)" stroke-width="10.33" stroke-opacity="1.00" stroke-linejoin="round"/>
<path d="M575.39,4938.82 C575.26,4938.81 575.16,4938.81 575.10,4938.82 C574.96,4938.85 574.81,4938.91 574.67,4938.99 C574.54,4939.07 574.43,4939.18 574.30,4939.27 C574.21,4939.33 574.09,4939.38 573.93,4939.44 C573.82,4939.48 573.71,4939.50 573.60,4939.51 C573.53,4939.51 573.37,4939.51 573.11,4939.51 C572.98,4939.44 574.07,4938.66 575.35,4938.00 C575.86,4937.74 583.92,4934.43 586.85,4933.25 C590.15,4931.99 595.12,4930.72 599.80,4929.87 C599.80,4929.87 575.39,4938.09 575.39,4938.09 C583.46,4934.01 589.75,4931.90 598.20,4929.74 C598.86,4929.57 599.52,4929.37 600.18,4929.22 C600.37,4929.18 600.52,4929.16 600.63,4929.18" fill="none" stroke="rgb(255, 255, 255)" stroke-width="4.13" stroke-opacity="1.00" stroke-linejoin="round"/>
<path d="M574.01,4941.92 C573.90,4942.00 573.80,4942.05 573.72,4942.09 C573.56,4942.17 573.36,4942.26 573.12,4942.35 C572.93,4942.42 572.74,4942.48 572.55,4942.56 C572.42,4942.61 572.27,4942.68 572.12,4942.76 C571.95,4942.85 571.86,4942.90 571.86,4942.90 C571.82,4942.91 571.73,4942.93 571.61,4942.95 C571.64,4942.95 571.71,4942.92 571.82,4942.87 C572.91,4942.36 574.63,4941.64 575.95,4941.19 C591.99,4935.67 603.77,4933.30 605.52,4932.66 C604.28,4933.18 586.18,4938.33 582.71,4939.49 C573.46,4942.61 565.61,4947.25 565.40,4947.73 C568.13,4945.56 576.76,4941.87 586.59,4938.24 C595.47,4935.17 607.20,4932.28 607.97,4932.12" fill="none" stroke="rgb(255, 255, 255)" stroke-width="4.13" stroke-opacity="1.00" stroke-linejoin="round"/>
<path d="M563.68,4948.81 C563.55,4948.88 563.46,4948.94 563.39,4948.98 C563.28,4949.06 563.13,4949.18 562.96,4949.32 C562.79,4949.47 562.67,4949.59 562.60,4949.67 C562.41,4949.88 562.31,4949.99 562.28,4950.01 C562.16,4950.10 561.90,4950.27 561.50,4950.52 C561.49,4950.52 561.47,4950.53 561.47,4950.53 C561.94,4950.34 562.28,4950.18 562.52,4950.05 C562.94,4949.83 570.08,4945.63 572.98,4944.34 C584.69,4939.19 602.46,4933.63 607.20,4932.58" fill="none" stroke="rgb(255, 255, 255)" stroke-width="4.13" stroke-opacity="1.00" stroke-linejoin="round"/>
<path d="M559.20,4946.40 C559.20,4946.41 559.20,4946.37 559.20,4946.35 C559.41,4945.69 559.63,4945.21 559.85,4944.93 C562.49,4941.68 573.05,4937.48 583.28,4934.17 C593.44,4931.07 599.67,4929.55 606.13,4928.21" fill="none" stroke="rgb(255, 255, 255)" stroke-width="4.13" stroke-opacity="1.00" stroke-linejoin="round"/>
<path d="M558.52,4946.40 C558.43,4946.44 558.36,4946.48 558.29,4946.51 C558.09,4946.60 557.88,4946.67 557.68,4946.77 C557.51,4946.85 557.29,4946.98 557.02,4947.14 C556.69,4947.33 556.51,4947.44 556.47,4947.45 C556.38,4947.50 556.21,4947.55 555.97,4947.63 C555.75,4947.69 555.62,4947.73 555.56,4947.74 C555.51,4947.75 555.42,4947.76 555.31,4947.77 C555.30,4947.49 559.18,4944.53 561.53,4943.30 C568.64,4939.61 582.25,4935.80 589.01,4933.98 C590.94,4933.41 594.33,4932.41 595.79,4931.98 C596.93,4931.65 598.06,4931.33 599.19,4930.99 C599.61,4930.86 600.11,4930.69 600.69,4930.48" fill="none" stroke="rgb(255, 255, 255)" stroke-width="4.13" stroke-opacity="1.00" stroke-linejoin="round"/>
<path d="M568.16,4852.04 C568.16,4852.04 567.38,4852.26 567.38,4852.26 C567.38,4852.26 565.40,4862.50 565.40,4862.50 C565.40,4862.50 567.21,4852.90 567.21,4852.90 C567.84,4853.93 568.25,4855.56 568.16,4857.33 C568.12,4858.03 567.43,4862.82 567.47,4863.06 C567.86,4861.11 568.75,4857.69 568.76,4857.55 C568.82,4856.75 568.32,4854.79 567.99,4853.68 C566.88,4853.76 566.23,4854.39 566.09,4855.66 C566.01,4856.37 565.32,4858.60 565.40,4858.76 C565.32,4856.07 566.54,4851.88 567.90,4851.09 C568.89,4851.48 569.71,4854.47 569.28,4856.78 C568.85,4858.80 568.11,4862.95 568.16,4863.71 C568.71,4862.67 570.52,4856.92 570.18,4855.40 C570.04,4854.81 569.48,4853.24 569.54,4852.04 C569.54,4852.04 569.54,4860.91 569.54,4860.91 C569.54,4860.91 569.54,4852.08 569.54,4852.08 C569.05,4852.02 568.70,4852.12 568.50,4852.38 C568.35,4852.58 567.98,4853.47 567.38,4855.05 C567.23,4855.45 567.07,4855.85 566.89,4856.23" fill="none" stroke="rgb(255, 255, 255)" stroke-width="4.13" stroke-opacity="1.00" stroke-linejoin="round"/>
<path d="M568.16,4856.86 C568.16,4856.78 568.16,4856.71 568.16,4856.63 C568.16,4856.52 568.16,4856.40 568.16,4856.29 C568.16,4856.25 568.16,4856.21 568.16,4856.17 C568.17,4856.17 568.19,4856.17 568.21,4856.17 C568.26,4856.17 568.31,4856.15 568.35,4856.12 C568.50,4856.02 568.61,4855.90 568.69,4855.78 C568.83,4855.54 568.85,4854.89 568.80,4853.89 C567.52,4853.97 566.83,4854.13 566.52,4854.62 C565.68,4856.03 565.20,4863.27 564.98,4864.80 C564.61,4867.60 565.41,4871.85 565.36,4873.30 C564.58,4872.20 564.59,4868.57 565.07,4864.58 C565.91,4858.07 566.82,4853.72 566.78,4853.07 C565.66,4855.30 565.25,4856.68 565.30,4858.64 C565.32,4860.33 565.38,4863.49 565.40,4864.95 C565.41,4866.52 565.43,4869.27 565.40,4869.99 C565.39,4870.23 565.37,4870.67 565.34,4871.32" fill="none" stroke="rgb(255, 255, 255)" stroke-width="4.13" stroke-opacity="1.00" stroke-linejoin="round"/>
</g>
</svg>
