<?xml version="1.0" encoding="UTF-8" standalone="no"?>
<!DOCTYPE svg PUBLIC "-//W3C//DTD SVG 1.1//EN" "http://www.w3.org/Graphics/SVG/1.1/DTD/svg11.dtd">
<svg width="292.00" height="292.00" viewBox="0.00 0.00 292.00 292.00" xmlns="http://www.w3.org/2000/svg" xmlns:xlink="http://www.w3.org/1999/xlink">
<g stroke-linecap="round" transform="translate(-1029.00, -4437.00)" id="Layer_4_Copy_3">
<path d="M1299.00,4622.00 C1299.07,4621.98 1299.12,4621.98 1299.17,4622.00 C1299.29,4622.05 1299.41,4622.13 1299.54,4622.25 C1299.68,4622.37 1299.79,4622.51 1299.88,4622.65 C1299.93,4622.73 1299.94,4622.83 1300.00,4622.90 C1300.01,4622.90 1300.01,4622.77 1300.00,4622.50 C1299.82,4617.06 1298.04,4604.06 1295.88,4597.69 C1295.06,4595.31 1291.67,4587.75 1290.31,4585.38 C1287.27,4580.13 1278.86,4571.25 1271.07,4563.69 C1264.90,4557.82 1253.64,4548.73 1246.23,4543.61 C1238.01,4537.96 1231.36,4532.91 1226.50,4527.56 C1218.73,4518.66 1211.75,4509.97 1208.33,4504.91 C1204.37,4499.01 1198.21,4485.68 1195.74,4477.77 C1194.67,4474.32 1192.49,4465.92 1192.12,4464.88 C1191.53,4463.20 1190.22,4460.43 1189.31,4458.94 C1188.47,4457.63 1186.69,4456.20 1185.00,4455.50 C1182.56,4454.54 1173.17,4452.93 1170.13,4453.37 C1167.62,4453.78 1162.41,4456.10 1158.93,4458.24 C1156.27,4459.92 1153.97,4462.22 1152.53,4464.53 C1151.30,4466.53 1149.46,4470.73 1148.78,4473.37 C1147.95,4476.73 1147.64,4481.03 1147.91,4484.66 C1148.63,4493.35 1151.42,4503.34 1155.09,4512.91 C1158.87,4522.44 1164.12,4532.09 1167.66,4537.02 C1173.36,4544.85 1189.96,4556.87 1190.31,4557.00 C1190.47,4557.05 1190.70,4557.05 1191.00,4557.00 C1191.00,4557.00 1190.91,4557.00 1190.91,4557.00" fill="none" stroke="rgb(255, 255, 255)" stroke-width="10.00" stroke-opacity="1.00" stroke-linejoin="round"/>
<path d="M1128.76,4555.61 C1128.82,4555.74 1128.87,4555.83 1128.91,4555.89 C1129.04,4556.10 1129.16,4556.24 1129.26,4556.32 C1129.36,4556.39 1129.50,4556.44 1129.68,4556.46 C1129.72,4556.47 1129.85,4556.47 1130.06,4556.46 C1130.10,4556.46 1130.19,4556.46 1130.34,4556.46 C1130.42,4556.46 1130.49,4556.46 1130.57,4556.46 C1130.54,4556.32 1130.00,4556.03 1129.07,4555.77 C1124.81,4554.58 1103.77,4552.95 1101.17,4553.05 C1100.03,4553.10 1081.45,4554.08 1076.18,4554.64 C1068.48,4555.47 1059.70,4557.88 1054.95,4560.57 C1053.22,4561.57 1050.61,4563.89 1049.72,4565.25 C1048.50,4567.19 1047.62,4571.27 1047.54,4575.01 C1047.51,4576.07 1047.17,4581.29 1047.84,4584.17 C1048.14,4587.49 1049.75,4591.43 1050.88,4593.45 C1052.46,4596.18 1055.89,4599.32 1058.42,4600.20 C1063.46,4601.79 1077.33,4602.21 1080.63,4602.07 C1093.71,4601.44 1129.12,4599.62 1135.90,4599.04 C1145.72,4598.01 1151.51,4596.71 1153.56,4595.47 C1154.62,4594.79 1156.34,4592.38 1156.91,4590.89 C1157.92,4588.09 1157.63,4581.92 1157.02,4579.32 C1156.38,4576.73 1154.45,4572.13 1152.95,4569.52 C1151.76,4567.48 1148.64,4563.91 1146.22,4561.63 C1143.96,4559.57 1139.23,4557.63 1134.25,4556.63 C1130.59,4555.92 1124.39,4555.27 1123.98,4555.18 C1123.67,4555.12 1123.24,4554.98 1122.71,4554.76" fill="none" stroke="rgb(255, 255, 255)" stroke-width="10.00" stroke-opacity="1.00" stroke-linejoin="round"/>
<path d="M1063.75,4603.35 C1063.83,4603.38 1063.91,4603.38 1064.00,4603.35 C1064.31,4603.29 1064.47,4603.29 1064.46,4603.35 C1064.36,4603.78 1064.00,4604.09 1063.81,4604.47 C1063.63,4604.82 1060.63,4610.57 1060.13,4613.16 C1060.04,4613.65 1060.86,4620.87 1061.47,4623.05 C1062.85,4627.92 1065.14,4633.44 1067.15,4636.61 C1068.92,4639.31 1074.09,4643.31 1077.49,4644.17 C1080.92,4644.99 1097.43,4645.23 1101.62,4645.13 C1108.60,4644.95 1153.57,4640.35 1156.64,4639.80 C1159.34,4639.31 1164.79,4637.79 1167.04,4636.42 C1169.12,4635.11 1171.94,4631.52 1172.73,4629.02 C1173.54,4626.31 1174.37,4620.13 1173.84,4617.21 C1173.25,4614.18 1170.06,4607.03 1168.12,4604.27 C1166.28,4601.71 1162.07,4598.31 1159.99,4597.55" fill="none" stroke="rgb(255, 255, 255)" stroke-width="10.00" stroke-opacity="1.00" stroke-linejoin="round"/>
<path d="M1081.90,4648.54 C1081.81,4648.54 1081.73,4648.54 1081.66,4648.54 C1081.43,4648.55 1081.29,4648.55 1081.25,4648.54 C1081.19,4648.54 1081.10,4648.52 1080.99,4648.49 C1080.95,4648.40 1080.92,4648.31 1080.92,4648.22 C1080.91,4648.10 1080.95,4647.73 1080.94,4647.85 C1080.95,4648.18 1080.93,4648.57 1080.87,4649.02 C1080.67,4650.72 1081.10,4652.86 1081.46,4654.51 C1081.53,4655.00 1081.31,4657.85 1081.45,4658.81 C1081.88,4661.55 1085.47,4671.03 1086.38,4672.57 C1087.32,4674.10 1088.76,4675.53 1090.44,4676.68 C1094.17,4679.12 1098.76,4680.97 1103.75,4682.09 C1109.73,4683.39 1121.87,4683.54 1131.21,4683.13 C1137.14,4682.74 1152.20,4681.08 1159.09,4680.25 C1166.02,4679.21 1184.89,4676.21 1187.16,4675.08 C1188.44,4674.40 1190.69,4672.32 1191.03,4671.30 C1191.75,4668.93 1191.28,4662.52 1190.87,4660.51 C1190.24,4657.54 1188.28,4651.71 1186.93,4649.07 C1185.48,4646.27 1181.51,4641.21 1179.28,4639.10 C1177.68,4637.61 1173.48,4634.61 1170.68,4634.15 C1169.77,4634.01 1168.65,4633.98 1167.31,4634.05 C1166.57,4634.09 1165.54,4634.20 1164.23,4634.37 C1163.74,4634.44 1163.36,4634.51 1163.09,4634.58 C1163.01,4634.60 1162.61,4634.73 1161.89,4634.95" fill="none" stroke="rgb(255, 255, 255)" stroke-width="10.00" stroke-opacity="1.00" stroke-linejoin="round"/>
<path d="M1101.59,4685.20 C1101.44,4685.15 1101.34,4685.10 1101.26,4685.06 C1101.04,4684.94 1100.88,4684.83 1100.78,4684.74 C1100.71,4684.67 1100.66,4684.57 1100.63,4684.46 C1100.63,4684.43 1100.63,4684.39 1100.64,4684.35 C1100.64,4684.35 1099.89,4684.30 1099.89,4684.30 C1099.88,4686.22 1101.23,4689.44 1103.22,4692.82 C1106.05,4697.50 1110.40,4702.06 1114.63,4704.79 C1118.12,4706.98 1119.69,4707.73 1124.65,4709.32 C1128.96,4710.69 1131.78,4710.83 1132.42,4711.63 C1136.19,4711.63 1140.67,4710.68 1142.38,4710.73 C1146.31,4710.84 1153.38,4710.46 1156.23,4709.94 C1161.45,4708.94 1172.82,4703.77 1177.07,4701.35 C1179.70,4699.83 1184.95,4696.28 1187.20,4694.36 C1189.90,4692.03 1194.08,4687.08 1194.44,4685.63 C1194.67,4684.53 1193.89,4681.75 1193.06,4680.67 C1192.09,4679.47 1190.27,4678.23 1188.59,4677.52 C1187.92,4677.24 1187.24,4676.96 1186.56,4676.68 C1186.21,4676.54 1185.82,4676.42 1185.40,4676.30 C1184.93,4676.18 1184.47,4676.06 1184.00,4675.94" fill="none" stroke="rgb(255, 255, 255)" stroke-width="10.00" stroke-opacity="1.00" stroke-linejoin="round"/>
<path d="M1182.00,4555.00 C1182.08,4555.00 1182.17,4555.00 1182.25,4555.00 C1182.45,4555.00 1182.65,4555.00 1182.85,4555.00 C1183.05,4555.00 1183.24,4555.00 1183.44,4555.00 C1183.55,4555.00 1183.67,4555.00 1183.79,4555.00 C1183.89,4555.00 1183.99,4555.00 1184.09,4555.00 C1184.19,4555.00 1184.30,4555.00 1184.40,4555.00 C1184.60,4555.00 1184.80,4555.00 1185.00,4555.00 C1181.01,4554.06 1162.28,4553.97 1154.19,4554.00 C1144.78,4554.16 1135.39,4555.11 1132.06,4555.00 C1132.04,4555.00 1131.98,4555.00 1132.00,4555.00" fill="none" stroke="rgb(255, 255, 255)" stroke-width="10.00" stroke-opacity="1.00" stroke-linejoin="round"/>
<path d="M1301.00,4622.00 C1301.00,4621.93 1301.00,4621.87 1301.00,4621.80 C1301.00,4621.69 1301.00,4621.58 1301.00,4621.46 C1301.00,4621.38 1301.00,4621.30 1301.00,4621.21 C1301.00,4621.16 1301.00,4621.10 1301.00,4621.05 C1301.00,4620.99 1301.00,4620.93 1301.00,4620.87 C1301.00,4620.77 1301.00,4620.68 1301.00,4620.62 C1301.00,4620.45 1301.00,4619.96 1301.00,4620.12 C1301.02,4620.54 1300.99,4620.95 1300.94,4621.38 C1300.63,4623.68 1301.07,4626.32 1301.00,4631.19 C1300.93,4635.61 1302.05,4640.04 1302.04,4642.17 C1302.12,4651.66 1301.10,4661.32 1298.98,4667.52 C1297.88,4670.65 1294.26,4677.45 1292.00,4680.56 C1287.97,4686.05 1277.58,4695.50 1271.88,4698.81 C1267.18,4701.50 1254.83,4706.05 1246.75,4707.50 C1244.47,4707.91 1227.95,4710.22 1219.57,4710.66 C1208.85,4711.13 1166.33,4710.76 1162.92,4710.56" fill="none" stroke="rgb(255, 255, 255)" stroke-width="10.00" stroke-opacity="1.00" stroke-linejoin="round"/>
<path d="M1188.00,4555.00 C1188.06,4555.00 1188.11,4555.00 1188.17,4555.00 C1188.29,4555.00 1188.42,4555.00 1188.54,4555.00 C1188.74,4555.00 1188.85,4555.00 1188.88,4555.00 C1188.95,4555.00 1188.99,4555.00 1189.00,4555.00 C1189.01,4555.01 1189.06,4555.06 1189.15,4555.15 C1189.25,4555.26 1189.35,4555.35 1189.43,4555.43 C1189.51,4555.50 1189.61,4555.58 1189.74,4555.67 C1190.05,4555.90 1190.29,4556.05 1190.50,4556.25 C1191.29,4557.03 1191.87,4557.63 1192.25,4558.06 C1194.09,4560.20 1196.36,4564.76 1197.09,4568.35 C1197.50,4570.47 1200.64,4587.77 1203.74,4599.11 C1204.77,4602.73 1207.22,4611.31 1208.10,4614.12 C1209.00,4616.97 1211.64,4622.53 1214.19,4625.31 C1219.58,4631.14 1223.28,4634.05 1223.94,4634.00 C1223.94,4634.00 1223.00,4634.00 1223.00,4634.00" fill="none" stroke="rgb(255, 255, 255)" stroke-width="10.00" stroke-opacity="1.00" stroke-linejoin="round"/>
<path d="M1134.25,4553.50 C1134.30,4553.53 1134.34,4553.56 1134.38,4553.58 C1134.40,4553.60 1134.48,4553.66 1134.62,4553.77 C1134.74,4553.86 1134.83,4553.92 1134.88,4553.94 C1134.94,4553.97 1135.03,4553.99 1135.13,4554.00 C1135.14,4554.00 1135.21,4554.00 1135.35,4554.00 C1135.40,4554.00 1135.54,4554.00 1135.76,4554.00 C1135.81,4554.00 1135.86,4554.00 1135.91,4554.00 C1135.91,4554.01 1135.77,4553.99 1135.50,4553.94 C1129.86,4552.92 1119.94,4552.46 1119.50,4552.50 C1122.70,4552.46 1127.63,4552.61 1130.03,4553.00 C1132.20,4553.37 1136.49,4555.06 1136.44,4554.97 C1132.60,4553.10 1117.65,4551.96 1117.50,4552.00 C1132.46,4551.99 1140.53,4553.85 1141.16,4554.03 C1141.40,4554.11 1141.58,4554.18 1141.69,4554.25 C1141.73,4554.28 1141.85,4554.38 1142.03,4554.53" fill="none" stroke="rgb(255, 255, 255)" stroke-width="5.00" stroke-opacity="1.00" stroke-linejoin="round"/>
<path d="M1169.50,4705.50 C1169.50,4705.53 1169.50,4705.56 1169.50,4705.58 C1169.51,4705.66 1169.53,4705.72 1169.56,4705.77 C1169.60,4705.83 1169.65,4705.89 1169.71,4705.94 C1169.76,4705.97 1169.81,4705.99 1169.86,4706.00 C1169.88,4706.00 1169.93,4706.00 1170.00,4706.00 C1169.73,4706.29 1169.51,4706.51 1169.34,4706.66 C1167.91,4707.89 1161.93,4710.50 1159.41,4711.25 C1151.80,4713.45 1140.17,4714.04 1136.94,4713.81 C1131.67,4713.41 1127.92,4711.97 1127.00,4711.50 C1130.71,4712.51 1138.97,4712.50 1140.56,4712.44 C1148.77,4712.09 1152.80,4711.07 1153.97,4710.59 C1154.29,4710.44 1154.61,4710.28 1154.94,4710.12 C1155.07,4710.06 1155.44,4709.99 1155.49,4709.97" fill="none" stroke="rgb(255, 255, 255)" stroke-width="5.00" stroke-opacity="1.00" stroke-linejoin="round"/>
<path d="M1097.50,4682.00 C1097.50,4681.94 1097.50,4681.89 1097.50,4681.83 C1097.50,4681.75 1097.50,4681.67 1097.50,4681.58 C1097.50,4681.54 1097.50,4681.50 1097.50,4681.46 C1097.50,4681.42 1097.50,4681.38 1097.50,4681.35 C1097.50,4681.23 1097.50,4681.12 1097.50,4681.00 C1097.50,4681.00 1097.59,4685.94 1097.59,4685.94 C1097.59,4685.94 1096.00,4679.50 1096.00,4679.50 C1096.41,4680.65 1097.27,4683.06 1097.72,4684.31 C1098.03,4685.18 1098.19,4685.65 1098.22,4685.72 C1098.28,4685.88 1098.40,4686.16 1098.57,4686.54" fill="none" stroke="rgb(255, 255, 255)" stroke-width="4.00" stroke-opacity="1.00" stroke-linejoin="round"/>
<path d="M1150.00,4712.00 C1149.97,4712.00 1149.94,4712.00 1149.92,4712.00 C1149.82,4711.99 1149.75,4711.99 1149.73,4712.00 C1149.70,4712.01 1149.64,4712.04 1149.56,4712.10 C1149.53,4712.19 1149.51,4712.24 1149.50,4712.27 C1149.50,4712.28 1149.50,4712.33 1149.50,4712.39 C1149.50,4712.42 1149.50,4712.45 1149.50,4712.50 C1150.38,4712.78 1151.00,4712.95 1151.34,4713.00 C1156.08,4713.68 1166.43,4712.47 1167.50,4712.00 C1167.12,4711.96 1164.53,4712.53 1159.81,4712.50 C1154.39,4712.54 1149.05,4712.38 1148.56,4712.50 C1148.76,4712.87 1163.73,4713.07 1168.16,4712.06 C1168.36,4712.01 1168.63,4711.99 1168.97,4712.00 C1168.97,4712.00 1146.38,4713.50 1146.38,4713.50 C1146.38,4713.50 1171.94,4712.00 1171.94,4712.00 C1171.94,4712.00 1152.06,4713.00 1152.06,4713.00 C1164.46,4713.07 1169.64,4712.59 1170.47,4712.44 C1170.88,4712.36 1171.42,4712.13 1172.06,4711.75 C1172.18,4711.68 1172.30,4711.60 1172.44,4711.50" fill="none" stroke="rgb(255, 255, 255)" stroke-width="4.00" stroke-opacity="1.00" stroke-linejoin="round"/>
<path d="M1103.00,4686.25 C1102.99,4686.19 1102.99,4686.15 1103.00,4686.12 C1103.01,4686.10 1103.03,4686.06 1103.06,4686.00 C1103.14,4685.98 1103.19,4685.96 1103.21,4685.95 C1103.22,4685.94 1103.27,4685.90 1103.36,4685.82 C1103.45,4685.74 1103.51,4685.69 1103.54,4685.65 C1103.72,4685.41 1103.90,4685.09 1104.00,4684.81 C1104.00,4684.81 1102.53,4691.94 1102.53,4691.94 C1102.53,4691.94 1106.00,4684.50 1106.00,4684.50 C1106.00,4684.50 1104.00,4691.91 1104.00,4691.91 C1104.00,4691.91 1107.00,4684.53 1107.00,4684.53 C1107.00,4684.53 1105.00,4693.59 1105.00,4693.59 C1106.10,4688.97 1109.53,4684.47 1109.81,4684.12 C1107.15,4687.51 1106.43,4693.97 1106.50,4694.84 C1106.24,4689.25 1110.19,4684.79 1110.50,4684.31 C1108.64,4686.25 1107.74,4687.39 1107.11,4688.73 C1105.98,4691.20 1106.16,4694.72 1106.50,4695.44 C1106.08,4694.83 1106.04,4692.46 1106.69,4690.53 C1107.61,4687.84 1111.32,4684.70 1112.00,4684.00 C1110.46,4684.64 1108.26,4686.78 1107.47,4688.53 C1107.31,4688.89 1107.11,4689.38 1106.88,4690.00 C1106.76,4690.31 1106.64,4690.63 1106.53,4690.94" fill="none" stroke="rgb(255, 255, 255)" stroke-width="4.00" stroke-opacity="1.00" stroke-linejoin="round"/>
<path d="M1082.00,4652.25 C1081.92,4652.39 1081.86,4652.49 1081.83,4652.54 C1081.71,4652.77 1081.62,4652.94 1081.58,4653.04 C1081.53,4653.17 1081.51,4653.30 1081.50,4653.43 C1081.50,4653.53 1081.51,4653.63 1081.54,4653.72 C1081.57,4653.79 1081.61,4653.85 1081.65,4653.89 C1081.68,4653.91 1081.72,4653.94 1081.79,4653.98 C1081.90,4653.94 1081.98,4653.87 1082.04,4653.78 C1082.27,4653.42 1084.72,4648.65 1087.28,4646.25 C1083.40,4649.62 1081.96,4654.77 1082.06,4654.72 C1082.06,4654.72 1088.31,4646.06 1088.31,4646.06 C1087.31,4646.72 1084.61,4650.34 1083.80,4652.61 C1083.19,4654.36 1082.98,4657.81 1083.00,4657.91 C1083.39,4653.08 1086.42,4648.25 1087.97,4646.03 C1083.80,4649.94 1082.34,4656.37 1082.00,4658.25 C1082.28,4655.56 1082.65,4654.04 1083.53,4652.40 C1084.99,4649.75 1088.61,4646.69 1091.69,4645.62 C1092.07,4645.50 1092.77,4645.29 1093.81,4645.00 C1093.10,4645.40 1089.22,4647.33 1086.95,4648.98 C1084.58,4650.74 1082.70,4654.52 1082.41,4655.72 C1082.43,4655.48 1082.45,4655.31 1082.47,4655.22 C1082.49,4655.13 1082.53,4654.97 1082.59,4654.76" fill="none" stroke="rgb(255, 255, 255)" stroke-width="4.00" stroke-opacity="1.00" stroke-linejoin="round"/>
<path d="M1061.00,4611.00 C1061.00,4611.06 1061.00,4611.11 1061.00,4611.17 C1061.00,4611.27 1061.00,4611.37 1061.00,4611.48 C1061.00,4611.56 1061.00,4611.63 1061.00,4611.71 C1061.00,4611.78 1061.00,4611.84 1061.00,4611.90 C1061.00,4611.97 1061.00,4612.04 1061.00,4612.12 C1061.00,4612.12 1061.17,4612.17 1061.17,4612.17 C1061.57,4611.84 1062.13,4611.20 1062.93,4610.12 C1065.01,4607.37 1068.40,4604.51 1072.81,4602.62 C1072.88,4602.60 1073.07,4602.49 1073.00,4602.50 C1072.19,4602.71 1068.51,4604.96 1065.75,4607.16 C1062.89,4609.48 1061.46,4611.39 1060.62,4612.94 C1060.48,4613.21 1060.53,4613.38 1060.50,4613.69 C1060.50,4613.73 1060.50,4613.84 1060.50,4614.01" fill="none" stroke="rgb(255, 255, 255)" stroke-width="4.00" stroke-opacity="1.00" stroke-linejoin="round"/>
<path d="M1185.96,4678.50 C1185.92,4678.50 1185.88,4678.50 1185.85,4678.50 C1185.77,4678.50 1185.73,4678.50 1185.71,4678.50 C1185.62,4678.51 1185.56,4678.51 1185.53,4678.50 C1185.50,4678.49 1185.36,4678.43 1185.12,4678.31 C1184.76,4678.13 1184.42,4677.95 1183.62,4677.50 C1186.38,4676.56 1191.39,4682.72 1191.47,4682.75 C1191.47,4682.75 1191.50,4685.31 1191.50,4685.31 C1191.50,4685.31 1191.50,4684.98 1191.50,4684.98" fill="none" stroke="rgb(255, 255, 255)" stroke-width="4.00" stroke-opacity="1.00" stroke-linejoin="round"/>
</g>
</svg>
