<?xml version="1.0" encoding="UTF-8" standalone="no"?>
<!DOCTYPE svg PUBLIC "-//W3C//DTD SVG 1.1//EN" "http://www.w3.org/Graphics/SVG/1.1/DTD/svg11.dtd">
<svg width="292.00" height="292.00" viewBox="0.00 0.00 292.00 292.00" xmlns="http://www.w3.org/2000/svg" xmlns:xlink="http://www.w3.org/1999/xlink">
<g stroke-linecap="round" transform="translate(-1456.00, -4453.00)" id="Layer_4_Copy_4">
<path d="M1508.45,4461.72 C1508.50,4461.62 1508.54,4461.54 1508.57,4461.49 C1508.65,4461.35 1508.75,4461.23 1508.85,4461.12 C1508.94,4461.01 1509.04,4460.93 1509.12,4460.88 C1509.17,4460.86 1509.25,4460.83 1509.38,4460.79 C1509.77,4460.91 1510.15,4462.41 1510.14,4464.23 C1510.14,4464.74 1505.10,4508.13 1503.64,4524.26 C1502.31,4543.59 1498.51,4635.83 1498.48,4650.72 C1498.68,4668.73 1501.41,4717.35 1501.84,4724.69 C1502.06,4727.92 1502.43,4733.22 1502.41,4733.59 C1502.39,4733.83 1502.29,4734.08 1502.11,4734.35" fill="none" stroke="rgb(255, 255, 255)" stroke-width="9.30" stroke-opacity="1.00" stroke-linejoin="round"/>
<path d="M1466.12,4706.43 C1465.88,4706.57 1465.70,4706.68 1465.57,4706.74 C1465.17,4706.96 1464.86,4707.12 1464.64,4707.21 C1464.46,4707.29 1464.28,4707.34 1464.12,4707.36 C1464.07,4707.37 1463.99,4707.37 1463.88,4707.36 C1463.87,4707.36 1463.92,4707.36 1463.93,4707.36 C1464.96,4707.33 1466.06,4707.27 1467.97,4707.10 C1479.79,4706.17 1512.51,4704.45 1526.81,4703.86 C1543.67,4703.43 1575.77,4702.90 1591.01,4702.79 C1606.61,4702.99 1639.50,4703.87 1656.79,4704.55 C1671.78,4705.41 1706.06,4707.61 1716.66,4708.86 C1724.62,4709.92 1735.27,4711.33 1737.17,4711.67 C1737.17,4711.67 1737.23,4710.97 1737.23,4710.97" fill="none" stroke="rgb(255, 255, 255)" stroke-width="9.30" stroke-opacity="1.00" stroke-linejoin="round"/>
<path d="M1536.37,4645.49 C1536.30,4645.60 1536.24,4645.67 1536.21,4645.72 C1536.06,4645.93 1535.95,4646.09 1535.86,4646.19 C1535.74,4646.32 1535.61,4646.45 1535.46,4646.56 C1535.32,4646.65 1535.17,4646.71 1535.03,4646.79 C1534.88,4646.85 1534.70,4646.88 1534.49,4646.88 C1533.70,4646.86 1533.15,4646.71 1532.84,4646.45 C1532.01,4645.72 1531.57,4643.45 1532.06,4642.23 C1532.68,4640.87 1534.65,4638.43 1536.08,4637.41 C1537.64,4636.33 1541.57,4634.89 1543.35,4634.79 C1545.19,4634.73 1548.43,4635.94 1549.63,4637.11 C1550.75,4638.31 1551.86,4641.58 1551.78,4643.45 C1551.57,4646.73 1549.09,4651.44 1547.91,4652.85 C1546.48,4654.53 1543.37,4656.90 1541.21,4657.87 C1540.11,4658.32 1537.13,4658.78 1535.67,4658.57 C1533.84,4658.28 1531.37,4656.06 1530.26,4654.04 C1529.48,4652.51 1529.04,4647.31 1529.56,4644.91 C1530.14,4642.43 1532.63,4638.09 1534.45,4636.42 C1538.00,4633.24 1545.32,4632.02 1547.01,4632.35 C1549.18,4632.83 1552.23,4634.38 1553.35,4635.78 C1554.38,4637.13 1555.40,4640.70 1555.33,4642.58 C1555.21,4644.33 1553.88,4648.13 1552.88,4649.62 C1551.80,4651.14 1548.97,4653.27 1547.24,4653.86 C1545.45,4654.42 1541.94,4654.29 1540.26,4653.57 C1538.61,4652.80 1536.03,4650.12 1535.26,4648.40 C1534.55,4646.65 1534.41,4643.13 1534.97,4641.48 C1535.55,4639.94 1537.65,4637.62 1539.04,4636.94 C1540.40,4636.33 1543.46,4636.09 1544.86,4636.47 C1546.25,4636.90 1548.45,4638.65 1549.10,4639.85 C1549.70,4641.03 1549.97,4643.86 1549.63,4645.20 C1549.23,4646.55 1547.50,4648.99 1546.31,4649.85 C1545.08,4650.69 1542.14,4651.42 1540.67,4651.25 C1539.11,4651.01 1536.67,4649.46 1535.90,4648.22 C1535.23,4647.03 1535.00,4644.15 1535.50,4642.99 C1536.03,4641.85 1538.31,4640.02 1539.68,4639.56 C1541.01,4639.15 1543.74,4639.30 1544.97,4639.79 C1546.11,4640.28 1547.39,4641.73 1547.59,4642.70 C1547.74,4643.60 1547.20,4645.21 1546.54,4645.90 C1545.86,4646.56 1544.27,4647.19 1543.40,4647.12 C1542.54,4647.01 1541.03,4646.04 1540.61,4645.31 C1540.34,4644.78 1540.14,4642.80 1540.61,4642.29 C1541.89,4641.01 1545.26,4640.51 1546.66,4641.59 C1547.05,4641.90 1547.50,4642.61 1548.00,4643.74 C1548.00,4643.74 1546.78,4645.37 1546.78,4645.37 C1544.91,4645.14 1543.05,4643.83 1542.88,4642.23 C1542.84,4641.82 1543.03,4641.18 1543.46,4640.31 C1543.96,4640.34 1544.87,4643.31 1540.96,4644.15 C1540.96,4644.15 1540.45,4641.87 1540.45,4641.87" fill="none" stroke="rgb(255, 255, 255)" stroke-width="9.30" stroke-opacity="1.00" stroke-linejoin="round"/>
<path d="M1581.96,4597.57 C1581.91,4597.57 1581.86,4597.57 1581.81,4597.57 C1581.62,4597.57 1581.51,4597.57 1581.46,4597.57 C1581.22,4597.57 1581.09,4597.57 1581.05,4597.57 C1580.90,4597.54 1580.77,4597.45 1580.62,4597.41 C1580.42,4597.33 1580.26,4597.22 1580.16,4597.06 C1579.51,4596.05 1579.39,4594.85 1579.86,4593.37 C1580.78,4590.72 1584.43,4586.61 1586.73,4586.40 C1587.87,4586.35 1589.79,4587.50 1590.51,4588.61 C1591.16,4589.70 1591.69,4592.35 1591.56,4593.73 C1591.39,4595.04 1590.35,4597.51 1589.58,4598.50 C1588.83,4599.40 1587.05,4600.58 1586.21,4600.71 C1585.30,4600.79 1583.57,4599.79 1583.07,4598.73 C1582.05,4596.51 1582.17,4590.67 1582.55,4588.50 C1583.04,4585.87 1584.71,4581.55 1586.06,4579.43 C1586.75,4578.41 1588.62,4576.85 1589.69,4576.58 C1590.82,4576.33 1593.20,4577.78 1593.94,4579.13 C1595.25,4581.66 1595.26,4586.52 1594.86,4588.61 C1594.60,4589.85 1593.41,4592.82 1592.54,4594.20 C1591.71,4595.48 1589.00,4597.84 1587.89,4598.33 C1586.69,4598.79 1584.30,4598.49 1583.18,4597.74 C1581.01,4596.19 1579.44,4590.63 1579.58,4588.15 C1579.61,4587.70 1580.12,4584.89 1580.45,4584.14 C1581.42,4582.02 1583.62,4579.43 1585.33,4578.73 C1588.09,4577.65 1593.17,4578.64 1594.78,4579.47 C1595.84,4580.03 1596.96,4580.85 1598.20,4581.98 C1599.10,4582.86 1600.67,4585.59 1600.98,4587.16 C1601.27,4588.91 1600.02,4592.48 1598.71,4593.96 C1597.47,4595.27 1594.05,4597.22 1592.31,4597.63 C1590.51,4597.99 1587.05,4597.42 1585.74,4596.46 C1584.52,4595.53 1582.86,4593.12 1582.44,4591.93 C1581.68,4589.52 1581.63,4585.20 1582.37,4582.99 C1583.17,4580.77 1586.04,4577.29 1588.03,4576.27 C1590.05,4575.29 1594.54,4575.05 1596.70,4575.83 C1598.85,4576.65 1602.34,4579.78 1603.37,4581.85 C1604.34,4583.91 1604.70,4588.40 1604.03,4590.51 C1603.35,4592.53 1600.84,4595.73 1598.85,4597.29 C1597.83,4598.04 1594.98,4599.29 1593.42,4599.55 C1591.67,4599.79 1588.57,4598.54 1587.66,4597.16 C1586.84,4595.86 1586.07,4592.70 1586.07,4591.27 C1586.17,4588.38 1587.47,4583.49 1588.85,4581.08 C1589.61,4579.79 1590.72,4578.37 1592.02,4577.01 C1593.06,4576.00 1595.93,4574.53 1597.55,4574.37 C1599.37,4574.22 1601.96,4576.10 1603.07,4577.97 C1603.86,4579.42 1604.16,4584.30 1603.54,4586.69 C1602.87,4589.10 1600.25,4593.41 1598.42,4595.19 C1596.69,4596.82 1592.46,4599.09 1590.92,4599.31 C1588.86,4599.55 1585.99,4598.88 1584.87,4597.63 C1582.97,4595.44 1582.16,4589.81 1582.36,4587.84 C1582.65,4585.43 1584.52,4581.32 1586.06,4579.87 C1587.62,4578.45 1591.55,4577.23 1593.73,4577.39 C1595.89,4577.59 1599.66,4579.28 1601.57,4580.93 C1602.52,4581.80 1604.28,4584.43 1604.81,4586.00 C1605.34,4587.64 1604.96,4591.00 1604.18,4592.22 C1603.41,4593.29 1600.77,4594.79 1599.23,4595.07 C1597.53,4595.32 1594.19,4594.75 1592.66,4593.91 C1591.14,4593.01 1589.22,4590.47 1588.82,4588.85 C1588.50,4587.32 1588.93,4584.43 1589.58,4583.32 C1590.79,4581.42 1593.33,4581.27 1594.35,4581.52 C1595.16,4581.74 1595.92,4582.14 1596.79,4582.74" fill="none" stroke="rgb(255, 255, 255)" stroke-width="9.30" stroke-opacity="1.00" stroke-linejoin="round"/>
<path d="M1648.02,4632.00 C1647.98,4632.00 1647.94,4632.00 1647.91,4632.00 C1647.76,4632.00 1647.67,4632.00 1647.63,4632.00 C1647.58,4631.99 1647.48,4631.96 1647.35,4631.92 C1647.16,4631.61 1647.13,4631.30 1647.29,4631.01 C1647.85,4629.95 1650.16,4627.80 1651.67,4626.96 C1653.45,4626.00 1655.70,4625.35 1657.80,4625.17 C1659.66,4625.05 1661.55,4625.56 1662.33,4626.41 C1662.99,4627.22 1663.12,4629.14 1662.62,4630.25 C1662.09,4631.32 1660.31,4633.14 1659.13,4633.80 C1657.97,4634.41 1655.53,4634.89 1654.48,4634.67 C1653.31,4634.38 1651.64,4632.75 1651.16,4631.36 C1650.25,4628.48 1652.26,4622.42 1653.61,4620.89 C1655.17,4619.22 1658.05,4617.48 1659.83,4617.34 C1661.45,4617.26 1664.27,4618.62 1665.24,4619.90 C1666.14,4621.22 1666.72,4624.56 1666.34,4626.36 C1665.91,4628.15 1663.87,4631.45 1662.33,4632.87 C1660.83,4634.19 1657.28,4636.05 1655.53,4636.42 C1653.76,4636.74 1650.53,4636.15 1649.30,4635.25 C1647.96,4634.21 1646.78,4631.39 1646.57,4629.21 C1646.46,4627.53 1647.82,4623.13 1649.07,4621.41 C1649.36,4621.04 1651.37,4618.97 1652.09,4618.56 C1654.14,4617.49 1657.66,4616.86 1659.71,4617.40 C1661.63,4617.96 1664.59,4620.37 1665.53,4622.11 C1666.40,4623.88 1666.57,4627.54 1665.88,4629.38 C1665.18,4631.06 1662.57,4634.17 1660.99,4635.25 C1659.41,4636.28 1656.07,4637.30 1654.65,4637.17 C1653.23,4636.97 1651.07,4635.10 1650.64,4633.57 C1649.92,4630.76 1651.22,4624.65 1652.05,4622.79 C1652.64,4621.53 1653.53,4620.17 1654.63,4618.83 C1655.52,4617.82 1658.17,4616.10 1659.65,4615.77 C1661.24,4615.46 1664.64,4616.77 1665.82,4618.04 C1666.92,4619.31 1667.89,4622.62 1667.74,4624.38 C1667.54,4626.05 1666.08,4628.88 1664.89,4630.02 C1663.80,4631.00 1661.25,4632.11 1660.12,4632.11 C1658.93,4632.06 1657.25,4630.82 1656.86,4629.67 C1656.50,4628.43 1656.95,4625.27 1657.73,4623.86 C1658.58,4622.42 1661.27,4620.26 1662.68,4619.84 C1664.04,4619.49 1666.35,4620.12 1666.92,4620.95 C1667.41,4621.75 1666.98,4623.85 1666.17,4624.90 C1665.78,4625.37 1662.69,4628.06 1662.04,4628.39 C1661.57,4628.63 1660.57,4628.99 1659.01,4629.50 C1659.01,4629.50 1658.26,4628.90 1658.26,4628.90" fill="none" stroke="rgb(255, 255, 255)" stroke-width="9.30" stroke-opacity="1.00" stroke-linejoin="round"/>
<path d="M1715.02,4508.71 C1715.03,4508.60 1715.03,4508.52 1715.02,4508.48 C1715.01,4508.43 1714.97,4508.35 1714.90,4508.25 C1714.76,4508.25 1714.67,4508.25 1714.62,4508.25 C1714.50,4508.23 1714.39,4508.18 1714.27,4508.17 C1714.09,4508.12 1713.95,4508.03 1713.87,4507.89 C1713.45,4507.06 1713.49,4504.67 1714.26,4503.52 C1715.15,4502.24 1717.40,4501.03 1718.33,4501.27 C1719.40,4501.62 1720.86,4502.94 1721.47,4504.23 C1722.11,4505.69 1722.55,4509.11 1722.34,4511.21 C1722.11,4513.30 1720.92,4516.91 1719.96,4518.48 C1719.04,4519.91 1716.84,4521.84 1715.77,4522.14 C1714.64,4522.40 1712.38,4521.56 1711.59,4520.52 C1710.11,4518.47 1709.41,4513.24 1709.58,4511.26 C1709.80,4508.93 1711.09,4504.82 1712.32,4502.61 C1712.98,4501.53 1715.00,4499.50 1716.24,4498.88 C1717.60,4498.26 1720.96,4498.74 1722.40,4499.75 C1724.94,4501.64 1727.38,4506.81 1727.75,4508.60 C1728.19,4510.83 1727.66,4515.18 1726.74,4517.19 C1725.97,4518.82 1722.54,4522.84 1719.61,4524.06 C1717.88,4524.74 1714.10,4524.63 1712.57,4523.83 C1709.97,4522.38 1707.36,4517.70 1706.92,4515.99 C1706.48,4514.23 1706.61,4508.85 1708.27,4506.04 C1709.24,4504.48 1712.49,4502.23 1714.26,4501.91 C1717.41,4501.40 1722.35,4503.47 1723.74,4504.58 C1724.68,4505.34 1725.62,4506.39 1726.57,4507.74 C1727.29,4508.82 1728.07,4511.52 1728.22,4513.48 C1728.31,4514.94 1726.38,4519.54 1725.19,4520.75 C1723.60,4522.29 1720.45,4524.15 1718.56,4524.47 C1716.78,4524.72 1713.34,4523.79 1711.99,4522.67 C1710.55,4521.40 1709.16,4518.23 1708.79,4515.86 C1708.57,4514.12 1709.59,4509.25 1710.48,4507.95 C1711.75,4506.20 1714.45,4504.20 1716.35,4503.83 C1718.16,4503.52 1722.03,4504.32 1723.62,4505.34 C1725.23,4506.43 1727.29,4509.59 1727.64,4511.44 C1727.90,4513.20 1727.09,4516.83 1726.12,4518.42 C1725.16,4519.90 1722.46,4522.08 1720.95,4522.61 C1719.36,4523.10 1716.31,4522.75 1714.90,4521.91 C1713.54,4521.03 1711.53,4518.20 1711.06,4516.50 C1710.63,4514.72 1711.07,4511.37 1711.93,4509.82 C1712.81,4508.36 1715.40,4506.32 1716.94,4505.86 C1718.43,4505.47 1721.48,4505.82 1722.81,4506.50 C1724.08,4507.20 1725.68,4509.19 1725.89,4510.34 C1726.05,4511.46 1725.26,4513.53 1724.38,4514.35 C1723.46,4515.15 1721.18,4515.97 1720.02,4515.92 C1718.98,4515.84 1716.95,4514.83 1716.35,4514.12 C1715.74,4513.32 1715.50,4511.56 1715.89,4510.75 C1716.27,4510.03 1717.89,4508.91 1718.80,4508.71 C1720.98,4508.30 1722.78,4509.58 1723.39,4510.40 C1723.05,4512.59 1721.26,4514.99 1719.26,4515.22 C1718.72,4515.29 1717.87,4515.03 1716.70,4514.47 C1716.36,4512.49 1716.93,4511.10 1718.62,4509.76 C1718.62,4509.76 1720.19,4509.99 1720.19,4509.99 C1719.87,4512.66 1717.21,4513.47 1715.89,4513.25 C1715.89,4513.25 1714.67,4511.15 1714.67,4511.15 C1714.67,4511.15 1714.17,4511.14 1714.17,4511.14" fill="none" stroke="rgb(255, 255, 255)" stroke-width="9.30" stroke-opacity="1.00" stroke-linejoin="round"/>
<path d="M1587.54,4591.52 C1587.67,4591.22 1587.77,4590.98 1587.85,4590.82 C1588.06,4590.42 1588.30,4590.03 1588.55,4589.66 C1588.64,4589.53 1588.88,4589.22 1589.26,4588.73 C1589.42,4588.54 1589.60,4588.30 1589.81,4588.02 C1590.01,4587.76 1590.12,4587.62 1590.14,4587.61 C1590.17,4587.58 1590.20,4587.56 1590.22,4587.57 C1589.30,4589.20 1588.84,4589.96 1588.03,4591.16 C1585.65,4594.70 1553.74,4630.28 1549.80,4635.03 C1548.67,4636.40 1546.68,4639.13 1546.02,4640.25 C1545.80,4640.64 1545.68,4640.98 1545.67,4641.30 C1545.67,4641.30 1545.67,4641.11 1545.67,4641.11" fill="none" stroke="rgb(255, 255, 255)" stroke-width="9.30" stroke-opacity="1.00" stroke-linejoin="round"/>
<path d="M1594.99,4589.20 C1595.04,4589.14 1595.09,4589.09 1595.14,4589.04 C1595.33,4588.86 1595.44,4588.74 1595.49,4588.69 C1595.67,4588.50 1595.78,4588.40 1595.80,4588.38 C1595.85,4588.35 1595.94,4588.31 1596.07,4588.26 C1596.13,4588.26 1596.93,4588.33 1597.27,4588.51 C1597.97,4588.89 1600.85,4590.86 1602.49,4591.81 C1603.19,4592.22 1622.46,4602.35 1630.49,4606.55 C1640.68,4611.98 1650.53,4618.46 1652.37,4619.51 C1655.52,4621.27 1666.81,4625.98 1667.91,4626.41 C1667.87,4626.41 1667.83,4626.41 1667.80,4626.41 C1667.66,4626.41 1667.52,4626.41 1667.38,4626.41" fill="none" stroke="rgb(255, 255, 255)" stroke-width="9.30" stroke-opacity="1.00" stroke-linejoin="round"/>
<path d="M1717.81,4512.43 C1717.94,4512.32 1718.04,4512.24 1718.12,4512.20 C1718.18,4512.17 1718.37,4512.09 1718.70,4511.97 C1718.92,4511.89 1719.06,4511.82 1719.13,4511.78 C1719.25,4511.71 1719.35,4511.59 1719.49,4511.55 C1719.55,4511.52 1719.68,4511.52 1719.88,4511.52 C1719.94,4512.35 1719.75,4513.20 1719.04,4514.69 C1715.01,4523.10 1695.06,4554.67 1689.66,4564.02 C1679.82,4581.83 1659.95,4627.57 1659.65,4627.98 C1659.56,4628.11 1659.40,4628.21 1659.19,4628.27 C1659.19,4628.27 1659.05,4628.25 1659.05,4628.25" fill="none" stroke="rgb(255, 255, 255)" stroke-width="9.30" stroke-opacity="1.00" stroke-linejoin="round"/>
<path d="M1581.50,4592.50 C1581.48,4592.51 1581.46,4592.53 1581.43,4592.57 C1581.40,4592.60 1581.33,4592.70 1581.21,4592.85 C1581.09,4593.08 1581.78,4594.32 1582.59,4595.06 C1583.78,4596.12 1588.75,4597.16 1590.72,4596.88 C1591.05,4596.82 1591.62,4596.68 1592.41,4596.44 C1592.69,4596.35 1592.87,4596.28 1592.97,4596.22 C1593.02,4596.19 1593.22,4596.05 1593.56,4595.81" fill="none" stroke="rgb(255, 255, 255)" stroke-width="4.00" stroke-opacity="1.00" stroke-linejoin="round"/>
<path d="M1589.50,4575.50 C1589.47,4575.53 1589.44,4575.56 1589.42,4575.58 C1588.85,4576.07 1587.97,4575.99 1587.57,4575.93 C1587.57,4575.93 1587.37,4575.62 1587.37,4575.62 C1587.51,4575.10 1587.86,4574.48 1588.59,4574.00 C1591.67,4572.04 1595.43,4571.99 1598.16,4572.50 C1598.17,4572.52 1596.66,4572.00 1595.94,4572.00 C1594.49,4572.01 1591.21,4572.98 1588.56,4574.00 C1588.56,4573.68 1591.19,4572.10 1592.78,4572.03 C1595.21,4571.96 1598.22,4572.67 1600.28,4573.84 C1602.70,4575.27 1603.81,4578.09 1604.56,4579.75 C1605.53,4582.53 1605.44,4585.04 1605.03,4587.03 C1607.57,4585.56 1604.68,4577.55 1604.31,4576.53 C1606.03,4579.38 1607.69,4584.76 1607.55,4587.26 C1607.37,4589.65 1605.64,4592.86 1603.55,4594.86 C1601.36,4596.92 1599.17,4598.69 1596.65,4600.25 C1591.02,4603.62 1584.72,4602.89 1583.00,4602.50 C1585.27,4602.58 1589.74,4602.22 1594.34,4601.50 C1597.83,4600.94 1599.88,4600.05 1602.53,4598.09 C1605.19,4596.07 1607.91,4591.92 1607.50,4591.50 C1607.31,4591.50 1607.12,4591.50 1606.94,4591.50 C1606.82,4591.50 1606.70,4591.50 1606.58,4591.50" fill="none" stroke="rgb(255, 255, 255)" stroke-width="4.00" stroke-opacity="1.00" stroke-linejoin="round"/>
<path d="M1542.50,4655.00 C1542.44,4655.03 1542.39,4655.06 1542.33,4655.08 C1542.18,4655.16 1542.07,4655.23 1542.02,4655.27 C1542.01,4655.28 1541.93,4655.37 1541.79,4655.54 C1541.70,4655.64 1541.62,4655.72 1541.56,4655.77 C1541.47,4655.82 1541.39,4655.88 1541.31,4655.93 C1541.25,4655.98 1541.19,4656.04 1541.14,4656.12 C1541.13,4656.13 1541.10,4656.20 1541.04,4656.33 C1541.01,4656.42 1541.00,4656.50 1541.00,4656.58 C1541.03,4656.94 1541.33,4657.43 1541.78,4657.75 C1542.95,4658.51 1546.50,4658.36 1549.09,4657.12 C1551.72,4655.83 1555.62,4652.25 1556.59,4650.19 C1557.29,4648.67 1557.98,4646.52 1558.00,4646.03 C1557.82,4646.18 1555.40,4650.70 1554.25,4652.41 C1552.24,4655.34 1548.54,4658.43 1546.66,4658.94 C1545.04,4659.35 1543.19,4659.56 1542.22,4659.50 C1544.30,4659.70 1545.69,4659.48 1547.56,4658.52 C1550.69,4656.88 1554.25,4653.12 1554.72,4650.88 C1555.10,4648.96 1554.95,4646.26 1554.50,4644.34 C1554.49,4648.84 1554.16,4652.82 1552.66,4655.31 C1551.42,4657.29 1547.30,4660.32 1545.72,4660.62 C1544.38,4660.87 1541.86,4661.04 1541.06,4661.00 C1540.99,4661.02 1548.33,4659.22 1550.97,4657.19 C1553.46,4655.19 1555.80,4649.46 1555.81,4647.28 C1555.81,4647.27 1555.44,4643.86 1555.50,4643.56 C1556.40,4647.56 1556.63,4651.30 1555.16,4654.03 C1553.90,4656.26 1548.95,4660.33 1547.50,4660.94 C1543.84,4662.40 1537.89,4661.43 1536.53,4660.53 C1536.53,4660.53 1544.44,4661.25 1544.44,4661.25 C1544.35,4661.42 1542.19,4661.64 1540.62,4661.44 C1538.91,4661.22 1536.00,4660.23 1534.94,4659.69 C1534.86,4659.65 1534.71,4659.56 1534.56,4659.50 C1534.56,4659.50 1534.60,4659.40 1534.60,4659.40" fill="none" stroke="rgb(255, 255, 255)" stroke-width="4.00" stroke-opacity="1.00" stroke-linejoin="round"/>
<path d="M1715.50,4498.50 C1715.53,4498.50 1715.56,4498.50 1715.58,4498.50 C1715.65,4498.50 1715.71,4498.50 1715.77,4498.50 C1715.83,4498.50 1715.88,4498.50 1715.94,4498.50 C1715.96,4498.50 1715.98,4498.50 1716.00,4498.50 C1716.01,4498.44 1716.01,4498.40 1716.00,4498.36 C1715.99,4498.32 1715.95,4498.24 1715.87,4498.12 C1715.71,4498.05 1715.54,4498.01 1715.38,4498.00 C1714.21,4497.95 1712.26,4498.78 1710.19,4500.28 C1708.63,4501.42 1706.16,4505.27 1706.06,4505.59 C1708.51,4502.26 1710.53,4499.91 1712.76,4498.30 C1714.49,4497.07 1716.42,4497.00 1716.72,4497.00 C1713.95,4497.20 1709.29,4499.37 1708.16,4500.94 C1707.46,4501.93 1706.51,4503.99 1706.66,4503.94 C1710.05,4500.55 1713.93,4497.34 1715.44,4497.12 C1715.84,4497.07 1716.86,4497.03 1718.50,4497.00 C1718.48,4497.00 1718.46,4497.00 1718.44,4497.00 C1718.40,4497.00 1718.35,4497.00 1718.31,4497.00 C1718.24,4497.00 1718.17,4497.00 1718.09,4497.00" fill="none" stroke="rgb(255, 255, 255)" stroke-width="4.00" stroke-opacity="1.00" stroke-linejoin="round"/>
<path d="M1722.75,4498.00 C1722.71,4498.00 1722.67,4498.00 1722.62,4498.00 C1722.58,4498.00 1722.54,4498.00 1722.50,4498.00 C1722.47,4497.97 1722.43,4497.93 1722.40,4497.90 C1722.34,4497.84 1722.29,4497.79 1722.23,4497.73 C1722.16,4497.66 1722.11,4497.62 1722.11,4497.61 C1722.10,4497.60 1722.07,4497.56 1722.02,4497.49 C1721.98,4497.42 1721.85,4497.26 1721.84,4497.24 C1721.83,4497.22 1721.82,4497.18 1721.81,4497.12 C1721.81,4497.12 1721.88,4497.00 1721.88,4497.00 C1722.62,4496.99 1723.42,4497.06 1724.03,4497.44 C1727.05,4499.34 1732.64,4507.52 1732.88,4509.44 C1733.16,4512.27 1731.63,4517.34 1730.07,4519.76 C1728.42,4522.22 1725.28,4524.70 1722.42,4525.75 C1721.24,4526.17 1718.22,4527.03 1716.53,4527.50 C1716.52,4527.50 1720.75,4526.92 1722.75,4525.97 C1724.91,4524.91 1726.92,4523.34 1728.09,4521.75 C1730.14,4518.87 1731.17,4514.53 1730.97,4510.69 C1730.79,4508.10 1729.60,4505.46 1727.66,4503.00 C1726.77,4501.89 1721.31,4499.33 1720.66,4498.56 C1720.95,4498.06 1722.85,4497.87 1724.69,4498.47 C1726.33,4499.02 1729.23,4501.17 1729.91,4502.28 C1730.46,4503.22 1730.91,4504.99 1731.00,4505.88 C1731.00,4505.88 1722.12,4498.25 1722.12,4498.25 C1723.21,4497.53 1724.97,4497.65 1726.81,4498.88 C1728.34,4499.91 1729.74,4501.81 1730.31,4503.34 C1730.70,4504.61 1729.40,4508.12 1728.22,4510.72 C1728.72,4510.05 1729.12,4505.93 1728.09,4503.53 C1726.94,4500.96 1722.41,4498.20 1722.25,4498.03 C1726.84,4499.89 1727.94,4505.24 1727.69,4506.25 C1727.57,4506.68 1727.31,4507.31 1726.91,4508.16 C1726.77,4508.41 1726.64,4508.64 1726.50,4508.84 C1726.31,4509.11 1726.12,4509.37 1725.93,4509.63" fill="none" stroke="rgb(255, 255, 255)" stroke-width="4.00" stroke-opacity="1.00" stroke-linejoin="round"/>
<path d="M1726.50,4501.00 C1726.50,4500.94 1726.50,4500.89 1726.50,4500.83 C1726.50,4500.75 1726.50,4500.67 1726.50,4500.58 C1726.50,4500.58 1726.60,4500.50 1726.60,4500.50 C1726.69,4500.49 1726.75,4500.49 1726.77,4500.50 C1726.83,4500.52 1726.87,4500.52 1726.89,4500.50 C1727.19,4500.32 1727.39,4500.23 1727.50,4500.22 C1728.04,4500.20 1730.21,4500.94 1730.75,4501.50 C1733.51,4504.50 1731.92,4510.50 1731.88,4511.16 C1731.88,4511.16 1731.53,4511.50 1731.53,4511.50 C1731.53,4511.50 1731.41,4511.50 1731.41,4511.50" fill="none" stroke="rgb(255, 255, 255)" stroke-width="4.00" stroke-opacity="1.00" stroke-linejoin="round"/>
</g>
</svg>
