<?xml version="1.0" encoding="UTF-8" standalone="no"?>
<!DOCTYPE svg PUBLIC "-//W3C//DTD SVG 1.1//EN" "http://www.w3.org/Graphics/SVG/1.1/DTD/svg11.dtd">
<svg width="292.00" height="292.00" viewBox="0.00 0.00 292.00 292.00" xmlns="http://www.w3.org/2000/svg" xmlns:xlink="http://www.w3.org/1999/xlink">
<g stroke-linecap="round" transform="translate(-1522.00, -4005.00)" id="Layer_4_Copy_2">
<path d="M1763.14,4010.99 C1763.29,4011.12 1763.40,4011.20 1763.49,4011.26 C1763.73,4011.42 1763.90,4011.50 1764.02,4011.52 C1764.07,4011.53 1763.91,4011.51 1763.86,4011.52 C1763.55,4011.59 1752.83,4014.52 1751.49,4015.32 C1748.91,4016.90 1737.99,4028.97 1734.32,4034.51 C1731.97,4038.07 1723.15,4053.98 1719.89,4060.28 C1718.21,4063.13 1714.60,4067.31 1713.02,4068.52 C1711.18,4069.90 1704.09,4074.10 1700.58,4076.18 C1695.09,4079.61 1690.49,4082.97 1688.53,4085.57 C1687.05,4087.58 1684.38,4092.84 1684.28,4094.78 C1684.19,4096.97 1684.46,4100.69 1684.51,4101.01" fill="none" stroke="rgb(255, 255, 255)" stroke-width="7.01" stroke-opacity="1.00" stroke-linejoin="round"/>
<path d="M1757.88,4012.57 C1757.84,4012.57 1757.80,4012.57 1757.75,4012.57 C1757.65,4012.57 1757.54,4012.57 1757.44,4012.57 C1757.33,4012.57 1757.23,4012.57 1757.13,4012.57 C1757.06,4012.57 1756.99,4012.57 1756.92,4012.57 C1756.85,4012.57 1757.05,4012.57 1757.11,4012.57 C1757.94,4012.57 1758.77,4012.57 1759.59,4012.57 C1762.62,4012.60 1771.08,4012.82 1772.34,4013.03 C1776.35,4013.75 1781.72,4017.19 1783.94,4018.90 C1786.21,4020.68 1791.25,4026.36 1793.13,4029.37 C1794.95,4032.37 1796.71,4038.42 1796.65,4041.34 C1796.56,4043.92 1794.94,4047.98 1793.71,4049.68 C1792.55,4051.26 1786.84,4058.07 1784.89,4059.75 C1782.97,4061.40 1762.51,4073.29 1760.78,4074.67 C1757.34,4077.46 1750.00,4086.22 1744.74,4094.61 C1742.45,4098.28 1737.57,4106.09 1736.90,4106.88 C1736.34,4107.54 1728.95,4113.61 1726.87,4114.83 C1724.79,4116.02 1719.09,4117.80 1717.04,4118.24 C1715.05,4118.65 1710.89,4118.80 1708.47,4118.77 C1708.24,4118.77 1708.02,4118.77 1707.81,4118.77 C1707.69,4118.77 1707.57,4118.77 1707.45,4118.77" fill="none" stroke="rgb(255, 255, 255)" stroke-width="7.01" stroke-opacity="1.00" stroke-linejoin="round"/>
<path d="M1706.36,4119.82 C1706.36,4119.70 1706.36,4119.59 1706.36,4119.47 C1706.36,4119.29 1706.36,4119.12 1706.36,4118.94 C1706.43,4119.88 1706.51,4120.81 1706.58,4121.74 C1706.65,4122.68 1706.72,4123.61 1706.80,4124.54" fill="none" stroke="rgb(255, 255, 255)" stroke-width="7.01" stroke-opacity="1.00" stroke-linejoin="round"/>
<path d="M1762.09,4029.39 C1762.13,4029.39 1762.18,4029.39 1762.22,4029.39 C1762.33,4029.39 1762.43,4029.39 1762.54,4029.39 C1762.64,4029.39 1762.74,4029.39 1762.85,4029.39 C1762.97,4029.39 1763.09,4029.39 1763.22,4029.39 C1763.43,4029.39 1763.64,4029.39 1763.85,4029.39 C1763.92,4029.39 1764.00,4029.39 1764.08,4029.39 C1764.09,4029.40 1764.08,4029.40 1764.06,4029.39 C1763.80,4029.38 1763.51,4029.43 1763.21,4029.53 C1762.10,4029.90 1757.87,4031.83 1756.70,4032.61 C1755.40,4033.52 1753.49,4036.00 1753.09,4037.21 C1752.82,4038.12 1752.73,4040.99 1752.96,4041.81 C1753.38,4043.17 1755.07,4045.06 1756.44,4045.56 C1758.79,4046.35 1765.68,4045.85 1768.33,4044.51 C1768.98,4044.15 1771.34,4042.43 1771.68,4041.81 C1772.32,4040.60 1772.89,4036.75 1772.54,4035.31 C1772.19,4033.98 1770.77,4032.15 1769.31,4030.86 C1767.87,4029.68 1767.12,4029.46 1764.39,4029.39 C1761.79,4029.37 1761.19,4029.52 1760.18,4030.38 C1759.86,4030.66 1759.53,4030.95 1759.20,4031.23 C1759.12,4031.31 1758.99,4031.44 1758.81,4031.63" fill="none" stroke="rgb(255, 255, 255)" stroke-width="7.01" stroke-opacity="1.00" stroke-linejoin="round"/>
<path d="M1658.87,4131.74 C1659.01,4131.81 1659.09,4131.81 1659.13,4131.74 C1659.17,4131.66 1659.22,4131.40 1659.27,4130.95 C1655.53,4129.61 1651.84,4128.72 1648.63,4128.47 C1638.34,4127.71 1625.49,4127.39 1617.48,4128.05 C1609.36,4128.79 1598.76,4130.53 1598.41,4130.75 C1596.62,4131.91 1593.02,4136.39 1591.68,4138.58 C1587.02,4146.29 1582.19,4156.21 1577.75,4166.64 C1572.00,4180.48 1558.28,4214.40 1555.93,4221.75 C1545.56,4256.02 1539.89,4282.65 1539.66,4283.48 C1539.37,4284.52 1539.11,4285.31 1538.87,4285.84 C1538.77,4286.06 1538.64,4286.22 1538.48,4286.30" fill="none" stroke="rgb(255, 255, 255)" stroke-width="7.01" stroke-opacity="1.00" stroke-linejoin="round"/>
<path d="M1681.48,4141.20 C1681.43,4141.20 1681.39,4141.20 1681.35,4141.20 C1681.24,4141.20 1681.14,4141.20 1681.03,4141.20 C1680.93,4141.20 1680.82,4141.20 1680.72,4141.20 C1680.71,4141.20 1680.70,4141.20 1680.71,4141.20 C1681.59,4141.75 1682.20,4142.14 1682.53,4142.38 C1684.57,4143.91 1687.94,4149.71 1689.02,4151.90 C1690.90,4155.74 1699.13,4177.71 1700.14,4180.76 C1702.40,4187.66 1702.55,4195.55 1702.51,4196.60 C1702.48,4197.08 1702.22,4197.61 1702.11,4197.72 C1702.05,4197.77 1701.90,4197.88 1701.65,4198.05" fill="none" stroke="rgb(255, 255, 255)" stroke-width="7.01" stroke-opacity="1.00" stroke-linejoin="round"/>
<path d="M1700.40,4191.67 C1700.42,4192.30 1700.42,4192.74 1700.40,4192.98 C1700.24,4195.10 1698.46,4199.03 1696.12,4202.28 C1691.93,4208.03 1682.42,4217.88 1676.29,4223.02 C1670.69,4227.67 1659.35,4235.61 1652.68,4239.47 C1644.20,4244.35 1613.08,4258.47 1599.13,4265.23 C1585.23,4272.00 1557.58,4282.89 1543.67,4288.21 C1540.82,4289.29 1539.71,4289.62 1539.53,4289.46 C1539.53,4289.33 1539.53,4289.19 1539.53,4289.06 C1539.53,4288.98 1539.53,4288.89 1539.53,4288.80 C1539.53,4288.66 1539.53,4288.51 1539.53,4288.37" fill="none" stroke="rgb(255, 255, 255)" stroke-width="7.01" stroke-opacity="1.00" stroke-linejoin="round"/>
<path d="M1637.32,4162.23 C1637.43,4162.23 1637.55,4162.23 1637.67,4162.23 C1637.84,4162.23 1638.02,4162.23 1638.19,4162.23 C1638.25,4162.23 1638.31,4162.23 1638.37,4162.23 C1638.37,4162.23 1639.02,4162.49 1639.02,4162.49 C1635.47,4167.57 1626.67,4180.00 1621.41,4187.36 C1614.21,4197.25 1611.33,4200.65 1604.55,4208.04 C1598.14,4214.99 1591.74,4222.95 1585.79,4231.63 C1585.79,4231.63 1585.79,4231.52 1585.79,4231.52" fill="none" stroke="rgb(255, 255, 255)" stroke-width="7.01" stroke-opacity="1.00" stroke-linejoin="round"/>
<path d="M1687.44,4107.20 C1687.54,4107.24 1687.63,4107.24 1687.72,4107.20 C1687.73,4107.20 1687.78,4107.19 1687.76,4107.20 C1685.03,4109.03 1682.28,4111.64 1681.45,4112.43" fill="none" stroke="rgb(255, 255, 255)" stroke-width="7.01" stroke-opacity="1.00" stroke-linejoin="round"/>
<path d="M1705.31,4117.72 C1705.43,4117.72 1705.54,4117.72 1705.66,4117.72 C1705.84,4117.72 1706.01,4117.72 1706.19,4117.72 C1706.28,4117.72 1706.37,4117.72 1706.47,4117.72 C1706.56,4117.72 1706.64,4117.72 1706.73,4117.72 C1706.83,4117.72 1706.93,4117.72 1707.02,4117.72 C1707.10,4117.72 1707.19,4117.72 1707.27,4117.72 C1707.32,4117.72 1707.36,4117.72 1707.41,4117.72 C1702.60,4122.74 1697.32,4127.45 1688.14,4135.25 C1683.89,4138.93 1680.79,4142.49 1680.08,4142.95 C1680.08,4142.95 1680.08,4142.83 1680.08,4142.83" fill="none" stroke="rgb(255, 255, 255)" stroke-width="7.01" stroke-opacity="1.00" stroke-linejoin="round"/>
<path d="M1685.33,4103.00 C1685.30,4103.00 1685.26,4103.00 1685.23,4103.00 C1685.21,4103.00 1685.17,4103.00 1685.18,4103.00 C1685.23,4103.00 1685.28,4103.00 1685.33,4103.00 C1685.87,4103.48 1686.18,4103.83 1686.25,4104.05 C1686.45,4104.63 1686.83,4107.39 1688.09,4109.44 C1689.15,4111.12 1694.10,4114.62 1697.49,4116.14 C1700.48,4117.44 1703.73,4117.86 1707.15,4117.72 C1707.75,4117.70 1708.41,4117.70 1709.12,4117.72 C1709.42,4117.72 1709.60,4117.72 1709.65,4117.72 C1709.74,4117.70 1710.08,4117.64 1710.67,4117.52" fill="none" stroke="rgb(255, 255, 255)" stroke-width="7.01" stroke-opacity="1.00" stroke-linejoin="round"/>
<path d="M1537.08,4282.80 C1537.12,4282.80 1537.16,4282.80 1537.21,4282.80 C1537.31,4282.80 1537.42,4282.80 1537.52,4282.80 C1537.63,4282.80 1537.73,4282.80 1537.83,4282.80 C1537.90,4282.80 1537.97,4282.80 1538.04,4282.80 C1538.10,4282.79 1538.13,4282.79 1538.13,4282.80 C1538.14,4282.84 1538.18,4282.84 1538.26,4282.80 C1538.36,4282.75 1538.67,4282.57 1539.18,4282.27 C1539.18,4282.12 1539.18,4281.97 1539.18,4281.81 C1539.18,4281.79 1539.18,4281.72 1539.18,4281.75 C1539.18,4281.75 1539.18,4288.06 1539.18,4288.06 C1539.18,4288.06 1539.18,4287.91 1539.18,4287.91" fill="none" stroke="rgb(255, 255, 255)" stroke-width="7.01" stroke-opacity="1.00" stroke-linejoin="round"/>
<path d="M1659.88,4130.00 C1659.85,4130.00 1659.83,4130.00 1659.81,4130.00 C1659.77,4130.00 1659.75,4130.00 1659.75,4130.00 C1659.74,4130.01 1659.73,4130.01 1659.70,4130.00 C1659.49,4129.94 1659.33,4129.88 1659.20,4129.83 C1659.14,4129.81 1659.09,4129.78 1659.06,4129.75 C1658.96,4129.75 1659.26,4129.75 1659.36,4129.75 C1660.43,4129.75 1662.01,4129.75 1662.92,4129.72 C1662.92,4129.72 1656.30,4128.66 1656.30,4128.66 C1656.30,4128.66 1664.23,4128.75 1664.23,4128.75 C1664.23,4128.75 1653.06,4126.44 1653.06,4126.44 C1653.06,4126.44 1653.05,4126.29 1653.05,4126.29" fill="none" stroke="rgb(255, 255, 255)" stroke-width="4.00" stroke-opacity="1.00" stroke-linejoin="round"/>
<path d="M1656.62,4131.50 C1656.59,4131.50 1656.56,4131.50 1656.52,4131.50 C1656.42,4131.50 1656.36,4131.50 1656.33,4131.50 C1656.24,4131.50 1656.19,4131.50 1656.18,4131.50 C1656.12,4131.50 1656.07,4131.49 1656.03,4131.48 C1655.97,4131.46 1655.85,4131.39 1655.82,4131.36 C1655.81,4131.35 1655.80,4131.33 1655.79,4131.30 C1655.83,4131.29 1655.88,4131.29 1655.92,4131.31 C1656.11,4131.38 1657.08,4131.80 1657.58,4131.94 C1658.03,4132.06 1658.48,4132.14 1658.92,4132.19 C1659.34,4132.23 1659.87,4132.25 1660.52,4132.25 C1660.69,4132.25 1660.85,4132.24 1661.01,4132.22" fill="none" stroke="rgb(255, 255, 255)" stroke-width="4.00" stroke-opacity="1.00" stroke-linejoin="round"/>
<path d="M1706.50,4119.50 C1706.47,4119.50 1706.45,4119.50 1706.44,4119.50 C1706.40,4119.51 1706.36,4119.53 1706.31,4119.55 C1706.27,4119.57 1706.23,4119.61 1706.19,4119.63 C1706.17,4119.65 1706.13,4119.67 1706.07,4119.70 C1705.97,4119.75 1705.90,4119.79 1705.87,4119.82 C1705.84,4119.84 1705.81,4119.88 1705.76,4119.94 C1705.76,4119.94 1705.88,4120.09 1705.88,4120.09 C1705.88,4120.09 1719.41,4118.94 1719.41,4118.94 C1719.41,4118.94 1705.55,4121.00 1705.55,4121.00 C1712.33,4120.77 1718.33,4119.38 1719.11,4119.08 C1719.36,4118.98 1719.63,4118.85 1719.92,4118.69 C1720.02,4118.63 1720.11,4118.57 1720.20,4118.50 C1720.26,4118.45 1720.36,4118.38 1720.50,4118.27" fill="none" stroke="rgb(255, 255, 255)" stroke-width="4.00" stroke-opacity="1.00" stroke-linejoin="round"/>
<path d="M1638.88,4161.75 C1638.85,4161.75 1638.82,4161.75 1638.81,4161.75 C1638.80,4161.75 1638.78,4161.76 1638.75,4161.78 C1638.75,4161.82 1638.75,4161.84 1638.75,4161.86 C1638.75,4161.90 1638.75,4161.93 1638.75,4161.93 C1638.75,4161.93 1638.80,4161.96 1638.89,4162.03 C1639.52,4162.49 1640.01,4163.77 1640.00,4163.83 C1639.92,4164.53 1637.72,4167.99 1637.03,4168.86 C1636.69,4169.29 1636.31,4169.75 1635.89,4170.25 C1635.71,4170.47 1635.53,4170.67 1635.36,4170.86 C1635.13,4171.10 1634.91,4171.35 1634.68,4171.59" fill="none" stroke="rgb(255, 255, 255)" stroke-width="4.00" stroke-opacity="1.00" stroke-linejoin="round"/>
<path d="M1659.38,4129.50 C1659.35,4129.52 1659.33,4129.53 1659.31,4129.54 C1659.28,4129.57 1659.25,4129.60 1659.22,4129.64 C1659.17,4129.69 1659.15,4129.72 1659.14,4129.72 C1659.12,4129.73 1659.08,4129.75 1659.03,4129.75 C1659.02,4129.75 1658.97,4129.75 1658.90,4129.75 C1658.88,4129.75 1658.86,4129.75 1658.82,4129.75 C1658.82,4129.75 1658.85,4129.64 1658.85,4129.64 C1658.85,4129.64 1665.23,4126.75 1665.23,4126.75 C1665.23,4126.75 1658.78,4129.66 1658.78,4129.66 C1658.78,4129.66 1659.94,4131.98 1659.94,4131.98 C1659.94,4131.98 1659.00,4131.34 1659.00,4131.34 C1659.00,4131.34 1659.50,4132.72 1659.50,4132.72 C1659.50,4132.72 1658.77,4132.02 1658.77,4132.02 C1658.97,4132.34 1659.51,4132.87 1659.72,4133.06 C1659.86,4133.19 1659.97,4133.36 1660.12,4133.47 C1660.17,4133.50 1660.22,4133.50 1660.29,4133.48" fill="none" stroke="rgb(255, 255, 255)" stroke-width="4.00" stroke-opacity="1.00" stroke-linejoin="round"/>
<path d="M1702.71,4123.25 C1702.68,4123.27 1702.65,4123.29 1702.61,4123.31 C1702.57,4123.34 1702.52,4123.38 1702.48,4123.41 C1702.44,4123.44 1702.35,4123.52 1702.21,4123.64 C1702.28,4123.63 1702.32,4123.62 1702.34,4123.61 C1702.97,4123.30 1708.70,4120.72 1710.00,4120.00 C1706.32,4121.93 1702.92,4123.42 1702.52,4123.62 C1702.30,4123.74 1701.88,4123.97 1701.28,4124.33 C1701.16,4124.40 1701.06,4124.46 1700.98,4124.50" fill="none" stroke="rgb(255, 255, 255)" stroke-width="4.00" stroke-opacity="1.00" stroke-linejoin="round"/>
<path d="M1681.25,4109.62 C1681.22,4109.71 1681.19,4109.77 1681.17,4109.81 C1680.98,4110.20 1680.58,4110.69 1680.55,4110.73 C1680.54,4110.75 1680.53,4110.79 1680.52,4110.85 C1680.53,4110.85 1680.58,4110.77 1680.66,4110.61 C1683.18,4105.61 1684.50,4104.25 1684.50,4104.25 C1683.38,4105.87 1680.41,4111.08 1678.36,4113.19 C1678.19,4113.36 1678.11,4113.44 1678.12,4113.44 C1678.12,4113.44 1678.21,4113.50 1678.21,4113.50" fill="none" stroke="rgb(255, 255, 255)" stroke-width="4.00" stroke-opacity="1.00" stroke-linejoin="round"/>
<path d="M1681.12,4139.50 C1681.15,4139.46 1681.17,4139.44 1681.19,4139.42 C1681.22,4139.36 1681.25,4139.31 1681.28,4139.26 C1681.31,4139.21 1681.33,4139.16 1681.36,4139.12 C1681.36,4139.11 1681.63,4138.80 1681.68,4138.71 C1681.70,4138.67 1681.73,4138.60 1681.75,4138.50 C1681.75,4138.50 1671.53,4149.03 1671.53,4149.03 C1672.74,4149.58 1680.90,4144.15 1684.48,4141.52 C1684.48,4141.52 1674.02,4148.16 1674.02,4148.16 C1674.02,4148.16 1682.81,4141.20 1682.81,4141.20 C1682.81,4141.20 1676.27,4145.66 1676.27,4145.66 C1676.27,4145.66 1681.23,4140.97 1681.23,4140.97 C1681.23,4140.97 1678.28,4143.34 1678.28,4143.34 C1678.28,4143.34 1681.00,4141.64 1681.00,4141.64 C1681.00,4141.64 1674.53,4147.44 1674.53,4147.44 C1674.71,4149.45 1685.49,4140.70 1685.48,4140.72 C1681.31,4143.71 1676.13,4146.85 1675.53,4147.22 C1675.18,4147.43 1674.78,4147.63 1674.72,4147.66 C1674.70,4147.67 1674.64,4147.70 1674.54,4147.75" fill="none" stroke="rgb(255, 255, 255)" stroke-width="4.00" stroke-opacity="1.00" stroke-linejoin="round"/>
<path d="M1678.04,4112.25 C1678.09,4112.22 1678.12,4112.20 1678.14,4112.19 C1678.16,4112.17 1678.19,4112.13 1678.22,4112.09 C1678.26,4112.03 1678.28,4112.00 1678.29,4112.00 C1678.30,4111.99 1678.32,4111.99 1678.36,4112.00 C1678.38,4112.00 1678.42,4112.01 1678.47,4112.02 C1678.50,4112.02 1678.47,4112.06 1678.39,4112.16 C1677.11,4113.65 1669.21,4122.70 1662.86,4129.88 C1659.75,4133.37 1654.09,4143.20 1654.00,4145.00 C1655.00,4144.86 1660.67,4139.20 1663.20,4136.72 C1669.87,4129.08 1681.60,4115.66 1681.47,4114.25 C1681.47,4114.25 1658.03,4140.38 1658.03,4140.38 C1658.03,4140.38 1680.23,4113.45 1680.23,4113.45 C1680.23,4113.45 1670.89,4125.44 1670.89,4125.44 C1670.89,4125.44 1680.27,4112.66 1680.27,4112.66 C1671.09,4121.95 1661.17,4135.70 1658.42,4139.16 C1658.42,4139.16 1665.62,4129.95 1665.62,4129.95 C1665.62,4129.95 1657.67,4139.27 1657.67,4139.27 C1657.67,4139.27 1663.44,4132.36 1663.44,4132.36 C1663.44,4132.36 1656.30,4141.38 1656.30,4141.38 C1656.30,4141.38 1659.86,4137.39 1659.86,4137.39 C1659.86,4137.39 1656.66,4141.50 1656.66,4141.50 C1656.66,4141.50 1658.41,4139.20 1658.41,4139.20 C1658.41,4139.20 1656.72,4141.77 1656.72,4141.77 C1656.68,4141.79 1667.95,4127.14 1668.39,4126.59 C1669.22,4125.57 1670.00,4124.63 1670.72,4123.78 C1670.97,4123.49 1671.17,4123.27 1671.31,4123.13" fill="none" stroke="rgb(255, 255, 255)" stroke-width="4.00" stroke-opacity="1.00" stroke-linejoin="round"/>
</g>
</svg>
