<?xml version="1.0" encoding="UTF-8" standalone="no"?>
<!DOCTYPE svg PUBLIC "-//W3C//DTD SVG 1.1//EN" "http://www.w3.org/Graphics/SVG/1.1/DTD/svg11.dtd">
<svg width="292.00" height="292.00" viewBox="0.00 0.00 292.00 292.00" xmlns="http://www.w3.org/2000/svg" xmlns:xlink="http://www.w3.org/1999/xlink">
<g stroke-linecap="round" transform="translate(-1112.00, -4020.00)" id="Layer_4_Copy">
<path d="M1184.87,4075.06 C1178.77,4079.45 1170.24,4087.13 1164.46,4093.40 C1158.73,4099.65 1150.40,4111.89 1146.28,4119.37 C1143.27,4124.87 1137.01,4138.52 1134.83,4144.81 C1131.97,4153.18 1129.03,4167.12 1128.57,4175.96 C1128.45,4178.38 1128.21,4187.44 1128.51,4190.89 C1128.91,4195.18 1133.22,4211.16 1137.00,4219.03 C1139.58,4224.35 1146.34,4234.82 1150.12,4239.28 C1153.81,4243.58 1163.35,4252.25 1168.40,4255.96 C1173.23,4259.49 1185.74,4267.06 1191.84,4269.74 C1195.10,4271.17 1214.79,4278.39 1220.27,4279.62 C1225.74,4280.83 1242.77,4283.22 1250.72,4283.60 C1258.71,4283.96 1275.95,4283.02 1281.88,4282.19 C1287.91,4281.32 1304.80,4277.13 1311.56,4274.43 C1317.10,4272.21 1332.29,4264.33 1337.44,4261.12 C1343.58,4257.27 1355.10,4247.96 1359.43,4243.36 C1364.86,4237.54 1373.15,4225.82 1377.12,4218.41 C1381.01,4211.11 1385.75,4198.28 1387.84,4189.56 C1390.07,4179.78 1391.18,4171.66 1391.00,4164.84 C1390.75,4156.74 1389.13,4144.98 1387.68,4139.11 C1385.91,4132.07 1381.31,4119.35 1378.51,4113.10 C1374.98,4105.38 1368.67,4094.24 1365.04,4089.12 C1360.69,4083.02 1351.55,4073.00 1346.63,4068.78 C1340.79,4063.79 1328.90,4055.93 1322.98,4053.07 C1316.25,4049.86 1302.51,4045.17 1295.62,4043.75 C1287.07,4042.02 1280.79,4041.43 1279.69,4041.38" fill="none" stroke="rgb(255, 255, 255)" stroke-width="10.00" stroke-opacity="1.00" stroke-linejoin="round"/>
<path d="M1188.75,4067.33 C1188.75,4067.33 1176.85,4077.88 1176.85,4077.88" fill="none" stroke="rgb(255, 255, 255)" stroke-width="10.00" stroke-opacity="1.00" stroke-linejoin="round"/>
<path d="M1188.00,4075.50 C1188.12,4075.37 1188.25,4075.25 1188.37,4075.12 C1188.71,4074.79 1188.91,4074.59 1188.97,4074.52 C1189.21,4074.28 1189.33,4074.15 1189.35,4074.15 C1189.45,4074.14 1189.50,4074.28 1189.50,4074.56 C1189.45,4077.51 1189.97,4080.43 1191.46,4084.83 C1192.67,4088.24 1195.38,4091.94 1198.34,4093.67 C1201.20,4095.29 1206.97,4096.33 1209.47,4096.40 C1212.22,4096.46 1219.28,4095.75 1222.95,4094.88 C1227.14,4093.87 1233.43,4091.72 1236.31,4090.26 C1239.36,4088.70 1247.16,4083.81 1248.82,4082.68 C1252.38,4080.23 1257.22,4075.80 1259.05,4072.67 C1260.72,4069.73 1262.70,4063.58 1263.00,4060.96 C1263.22,4058.78 1262.67,4052.05 1261.67,4049.65 C1260.55,4047.08 1255.50,4044.20 1254.65,4044.00 C1254.35,4043.93 1253.76,4043.93 1252.87,4044.00 C1252.70,4044.02 1252.58,4044.02 1252.50,4044.00" fill="none" stroke="rgb(255, 255, 255)" stroke-width="10.00" stroke-opacity="1.00" stroke-linejoin="round"/>
<path d="M1194.00,4092.00 C1193.98,4091.78 1193.98,4091.62 1194.00,4091.50 C1194.02,4091.37 1194.08,4091.12 1194.19,4090.75 C1194.39,4090.63 1194.54,4090.54 1194.64,4090.50 C1194.89,4090.36 1195.04,4090.28 1195.08,4090.24 C1195.18,4090.15 1195.28,4090.00 1195.38,4089.79 C1195.44,4089.66 1195.48,4089.53 1195.50,4089.42 C1195.50,4089.37 1195.50,4089.27 1195.50,4089.12 C1195.50,4089.12 1195.31,4089.00 1195.31,4089.00 C1194.46,4089.35 1193.74,4089.94 1192.20,4091.69 C1185.90,4098.86 1179.40,4109.09 1176.17,4116.14 C1173.67,4121.66 1169.81,4135.15 1168.76,4141.54 C1167.91,4146.88 1167.42,4161.92 1168.18,4169.25 C1168.67,4173.88 1171.80,4194.54 1173.20,4200.90 C1174.92,4208.63 1179.44,4222.55 1182.66,4230.70 C1187.76,4243.29 1201.09,4263.91 1205.18,4270.14" fill="none" stroke="rgb(255, 255, 255)" stroke-width="10.00" stroke-opacity="1.00" stroke-linejoin="round"/>
<path d="M1227.00,4095.00" fill="none" stroke="rgb(255, 255, 255)" stroke-width="10.00" stroke-opacity="1.00" stroke-linejoin="round"/>
<path d="M1215.00,4096.50 C1215.00,4096.41 1215.00,4096.33 1215.00,4096.24 C1215.00,4095.97 1215.00,4095.69 1215.00,4095.42 C1215.00,4095.15 1215.00,4095.95 1215.00,4096.22 C1215.04,4104.10 1215.23,4120.07 1216.12,4126.85 C1216.78,4131.62 1219.39,4146.10 1220.99,4152.73 C1223.40,4162.01 1226.66,4171.87 1229.81,4178.34 C1231.24,4181.25 1240.40,4197.90 1244.25,4204.49 C1248.61,4211.50 1258.68,4226.36 1261.54,4229.99 C1266.60,4236.40 1276.64,4246.43 1282.39,4250.84 C1287.96,4255.09 1317.18,4273.71 1317.47,4274.06 C1317.66,4274.30 1317.63,4274.61 1317.37,4274.99 C1317.37,4274.99 1316.71,4274.85 1316.71,4274.85" fill="none" stroke="rgb(255, 255, 255)" stroke-width="10.00" stroke-opacity="1.00" stroke-linejoin="round"/>
<path d="M1258.50,4072.50 C1258.50,4072.33 1258.50,4072.16 1258.50,4072.00 C1258.51,4071.55 1258.51,4071.30 1258.50,4071.25 C1258.50,4071.16 1258.50,4071.08 1258.50,4071.00 C1258.54,4070.60 1258.74,4070.33 1259.10,4070.19 C1259.90,4069.89 1261.01,4069.69 1262.44,4069.59 C1264.33,4069.48 1279.85,4077.36 1287.35,4081.22 C1291.46,4083.36 1294.69,4085.36 1298.15,4088.43 C1305.87,4095.56 1312.80,4102.38 1317.17,4108.05 C1320.99,4113.04 1327.55,4123.25 1332.97,4132.47 C1335.18,4136.12 1341.70,4146.15 1346.35,4155.87 C1349.85,4163.22 1353.52,4173.92 1355.90,4183.12 C1357.70,4190.72 1362.02,4209.88 1362.47,4212.56 C1363.36,4218.00 1364.24,4228.45 1364.61,4229.95" fill="none" stroke="rgb(255, 255, 255)" stroke-width="10.00" stroke-opacity="1.00" stroke-linejoin="round"/>
<path d="M1217.33,4096.67 C1217.43,4096.68 1217.50,4096.68 1217.56,4096.67 C1217.61,4096.65 1217.72,4096.59 1217.89,4096.50 C1217.94,4096.38 1217.98,4096.29 1218.00,4096.23 C1218.06,4096.07 1218.10,4095.97 1218.11,4095.95 C1218.16,4095.87 1218.23,4095.78 1218.31,4095.69 C1218.55,4095.44 1218.65,4095.23 1218.67,4095.17 C1218.67,4095.15 1218.67,4095.19 1218.67,4095.21 C1218.55,4095.86 1218.43,4096.40 1218.33,4096.83 C1217.01,4102.31 1215.26,4112.36 1215.33,4112.42 C1215.97,4110.64 1217.94,4100.06 1218.58,4097.75 C1218.63,4097.54 1218.66,4097.19 1218.67,4096.71 C1218.67,4096.69 1218.67,4096.65 1218.67,4096.67" fill="none" stroke="rgb(255, 255, 255)" stroke-width="5.00" stroke-opacity="1.00" stroke-linejoin="round"/>
<path d="M1220.00,4098.67 C1220.00,4098.61 1220.00,4098.56 1220.00,4098.50 C1220.00,4098.41 1220.00,4098.32 1220.00,4098.23 C1220.00,4098.14 1220.00,4098.05 1220.00,4097.95 C1220.00,4097.81 1220.00,4097.72 1220.00,4097.69 C1220.02,4097.47 1220.02,4097.34 1220.00,4097.30 C1219.98,4097.24 1219.89,4097.16 1219.75,4097.04 C1219.75,4097.04 1216.67,4118.29 1216.67,4118.29 C1216.59,4111.56 1218.38,4100.25 1219.17,4097.54 C1219.26,4097.24 1219.31,4096.98 1219.33,4096.75 C1219.34,4096.71 1219.34,4096.65 1219.33,4096.58" fill="none" stroke="rgb(255, 255, 255)" stroke-width="5.00" stroke-opacity="1.00" stroke-linejoin="round"/>
<path d="M1219.33,4099.67 C1219.33,4099.54 1219.33,4099.45 1219.33,4099.39 C1219.35,4099.22 1219.38,4099.08 1219.42,4098.97 C1219.44,4098.90 1219.51,4098.78 1219.62,4098.62 C1219.72,4098.46 1219.79,4098.36 1219.81,4098.31 C1219.88,4098.20 1219.92,4098.11 1219.95,4098.04 C1219.97,4097.96 1219.99,4097.86 1220.00,4097.75 C1220.00,4097.72 1220.00,4097.66 1220.00,4097.55 C1220.00,4097.53 1220.00,4097.48 1220.00,4097.40 C1220.00,4097.38 1220.00,4097.36 1220.00,4097.33 C1220.03,4097.31 1220.03,4097.38 1220.00,4097.54 C1217.55,4110.80 1217.34,4118.94 1217.33,4120.25 C1217.33,4121.42 1217.30,4122.35 1217.25,4123.04 C1217.23,4123.28 1217.18,4123.53 1217.08,4123.79 C1217.03,4123.93 1216.93,4124.21 1216.79,4124.63" fill="none" stroke="rgb(255, 255, 255)" stroke-width="5.00" stroke-opacity="1.00" stroke-linejoin="round"/>
<path d="M1189.00,4098.33 C1188.92,4098.41 1188.87,4098.46 1188.83,4098.50 C1188.73,4098.60 1188.67,4098.66 1188.67,4098.67 C1188.66,4098.67 1188.64,4098.67 1188.60,4098.67 C1188.59,4098.66 1188.53,4098.66 1188.43,4098.67 C1188.37,4098.67 1188.31,4098.67 1188.25,4098.67 C1188.20,4098.67 1188.14,4098.67 1188.09,4098.67 C1188.47,4098.24 1188.83,4097.90 1189.17,4097.67 C1189.69,4097.30 1195.52,4093.81 1195.96,4093.38 C1194.96,4093.80 1194.11,4094.29 1192.69,4095.27 C1191.81,4095.88 1190.36,4096.89 1189.71,4097.38 C1189.23,4097.73 1188.87,4098.01 1188.63,4098.21 C1188.42,4098.38 1188.00,4098.75 1187.34,4099.32" fill="none" stroke="rgb(255, 255, 255)" stroke-width="5.00" stroke-opacity="1.00" stroke-linejoin="round"/>
<path d="M1184.00,4101.33 C1184.03,4101.30 1184.06,4101.28 1184.08,4101.25 C1184.18,4101.15 1184.25,4101.08 1184.28,4101.05 C1184.37,4100.96 1184.44,4100.87 1184.48,4100.80 C1184.63,4100.52 1184.76,4100.24 1184.90,4099.96 C1185.32,4099.15 1186.57,4097.00 1187.13,4096.21 C1187.68,4095.42 1189.45,4093.30 1190.00,4092.75 C1190.42,4092.36 1190.83,4091.97 1191.25,4091.58 C1191.36,4091.47 1191.42,4091.39 1191.42,4091.33" fill="none" stroke="rgb(255, 255, 255)" stroke-width="5.00" stroke-opacity="1.00" stroke-linejoin="round"/>
<path d="M1205.33,4272.00 C1205.33,4271.93 1205.33,4271.85 1205.33,4271.78 C1205.33,4271.59 1205.33,4271.48 1205.33,4271.44 C1205.34,4271.30 1205.34,4271.22 1205.33,4271.20 C1205.32,4271.12 1205.28,4271.02 1205.22,4270.92 C1205.16,4270.81 1205.08,4270.71 1205.02,4270.60 C1204.96,4270.48 1204.91,4270.35 1204.86,4270.23 C1204.81,4270.12 1204.73,4269.98 1204.63,4269.82 C1204.49,4269.58 1204.42,4269.45 1204.41,4269.43 C1204.35,4269.30 1204.31,4269.17 1204.25,4269.04 C1204.19,4268.91 1204.12,4268.80 1204.08,4268.67 C1204.01,4268.44 1203.98,4268.24 1204.00,4268.08 C1204.01,4267.99 1204.07,4267.82 1204.17,4267.58 C1204.17,4267.58 1204.92,4267.33 1204.92,4267.33 C1205.24,4267.45 1209.54,4271.92 1213.18,4274.10 C1215.13,4275.24 1216.81,4276.46 1217.33,4276.67 C1217.49,4276.72 1217.73,4276.72 1218.06,4276.67" fill="none" stroke="rgb(255, 255, 255)" stroke-width="5.00" stroke-opacity="1.00" stroke-linejoin="round"/>
<path d="M1362.67,4227.33 C1362.66,4227.28 1362.67,4227.44 1362.67,4227.50 C1362.73,4230.73 1362.31,4232.24 1362.17,4232.67 C1362.03,4233.09 1360.63,4237.75 1360.25,4239.17 C1360.06,4239.65 1359.42,4241.04 1359.25,4241.50 C1359.23,4241.54 1359.18,4241.60 1359.08,4241.67 C1359.02,4241.71 1358.98,4241.78 1358.92,4241.83 C1358.88,4241.86 1358.80,4241.92 1358.67,4242.00" fill="none" stroke="rgb(255, 255, 255)" stroke-width="5.00" stroke-opacity="1.00" stroke-linejoin="round"/>
<path d="M1258.75,4045.29 C1258.75,4045.32 1258.75,4045.35 1258.75,4045.39 C1258.75,4045.42 1258.75,4045.45 1258.75,4045.48 C1258.76,4045.49 1258.76,4045.44 1258.75,4045.42 C1258.69,4045.32 1258.48,4044.99 1258.12,4044.42" fill="none" stroke="rgb(255, 255, 255)" stroke-width="10.00" stroke-opacity="1.00" stroke-linejoin="round"/>
<path d="M1189.00,4079.75 C1189.03,4079.75 1189.05,4079.75 1189.06,4079.75 C1189.12,4079.75 1189.15,4079.75 1189.16,4079.75 C1189.21,4079.74 1189.24,4079.73 1189.25,4079.71 C1189.26,4079.70 1189.26,4079.49 1189.25,4079.45 C1189.10,4078.45 1189.02,4077.71 1189.02,4077.23 C1189.01,4076.66 1189.24,4072.52 1189.30,4071.14" fill="none" stroke="rgb(255, 255, 255)" stroke-width="10.00" stroke-opacity="1.00" stroke-linejoin="round"/>
<path d="M1186.00,4074.38 C1185.96,4074.41 1185.92,4074.44 1185.88,4074.48 C1185.76,4074.57 1185.69,4074.64 1185.66,4074.67 C1185.63,4074.69 1185.58,4074.74 1185.51,4074.82 C1185.46,4074.88 1185.42,4074.91 1185.41,4074.93 C1185.32,4075.05 1185.27,4075.11 1185.27,4075.11 C1185.30,4075.01 1186.14,4074.14 1187.09,4073.28 C1190.25,4070.43 1200.58,4063.96 1207.28,4060.73 C1218.39,4055.41 1239.47,4047.95 1252.55,4044.84 C1256.02,4044.02 1262.44,4042.84 1265.88,4042.34 C1266.92,4042.20 1269.21,4041.91 1270.05,4041.81 C1270.22,4041.79 1270.44,4041.77 1270.71,4041.75" fill="none" stroke="rgb(255, 255, 255)" stroke-width="10.00" stroke-opacity="1.00" stroke-linejoin="round"/>
<path d="M1263.88,4041.12 C1263.83,4041.16 1263.80,4041.18 1263.77,4041.19 C1263.69,4041.22 1263.61,4041.24 1263.52,4041.25 C1263.49,4041.25 1263.38,4041.25 1263.19,4041.25 C1263.15,4041.25 1263.03,4041.25 1262.83,4041.25 C1262.72,4041.25 1262.60,4041.25 1262.49,4041.25 C1262.23,4041.25 1262.12,4041.25 1261.97,4041.23 C1261.97,4041.23 1261.81,4041.05 1261.81,4041.05 C1262.17,4040.70 1263.12,4040.24 1264.36,4039.92 C1268.18,4038.95 1279.56,4038.70 1280.64,4039.00 C1273.23,4039.05 1269.69,4039.17 1265.76,4039.74 C1263.06,4040.15 1261.15,4040.50 1259.73,4040.86 C1258.99,4041.05 1258.46,4041.19 1258.16,4041.30 C1258.02,4041.35 1257.88,4041.41 1257.75,4041.50" fill="none" stroke="rgb(255, 255, 255)" stroke-width="4.00" stroke-opacity="1.00" stroke-linejoin="round"/>
<path d="M1256.88,4046.75 C1256.84,4046.75 1256.81,4046.75 1256.77,4046.75 C1256.66,4046.75 1256.58,4046.75 1256.55,4046.75 C1256.43,4046.75 1256.36,4046.75 1256.34,4046.75 C1256.31,4046.75 1256.26,4046.73 1256.19,4046.71 C1256.19,4046.71 1256.12,4046.54 1256.12,4046.54 C1256.48,4046.31 1257.64,4045.88 1258.95,4045.58 C1269.59,4043.19 1285.33,4043.26 1288.62,4043.50 C1272.29,4043.50 1258.90,4045.77 1257.30,4046.14 C1264.92,4044.11 1284.89,4044.15 1285.55,4044.00 C1276.57,4042.86 1260.75,4044.73 1258.70,4044.97 C1258.70,4044.97 1281.45,4042.25 1281.45,4042.25 C1281.45,4042.25 1263.81,4042.73 1263.81,4042.73 C1263.81,4042.73 1278.00,4041.81 1278.00,4041.81 C1277.90,4041.74 1272.47,4041.77 1268.33,4041.92 C1266.66,4041.99 1258.06,4042.53 1255.92,4042.80 C1255.36,4042.87 1254.31,4043.02 1252.77,4043.25" fill="none" stroke="rgb(255, 255, 255)" stroke-width="4.00" stroke-opacity="1.00" stroke-linejoin="round"/>
<path d="M1186.50,4070.25 C1186.52,4070.21 1186.53,4070.18 1186.54,4070.17 C1186.58,4070.11 1186.62,4070.07 1186.67,4070.04 C1186.72,4070.00 1186.79,4069.98 1186.85,4069.95 C1186.88,4069.93 1186.94,4069.89 1187.02,4069.82 C1187.07,4069.78 1187.12,4069.73 1187.17,4069.69 C1187.27,4069.59 1187.36,4069.51 1187.45,4069.42 C1187.62,4069.25 1187.68,4069.14 1187.69,4069.06 C1187.69,4069.06 1181.70,4073.78 1181.70,4073.78 C1182.55,4073.16 1185.24,4070.90 1186.22,4070.14 C1186.73,4069.74 1187.37,4069.32 1188.14,4068.88 C1188.30,4068.78 1188.43,4068.72 1188.53,4068.67" fill="none" stroke="rgb(255, 255, 255)" stroke-width="4.00" stroke-opacity="1.00" stroke-linejoin="round"/>
<path d="M1187.88,4068.62 C1187.90,4068.59 1187.92,4068.57 1187.94,4068.56 C1187.98,4068.53 1188.01,4068.51 1188.03,4068.50 C1188.04,4068.50 1188.06,4068.50 1188.11,4068.50 C1188.12,4068.50 1188.15,4068.50 1188.20,4068.50 C1188.24,4068.50 1188.27,4068.50 1188.31,4068.50 C1188.37,4068.50 1188.43,4068.50 1188.48,4068.50 C1188.45,4068.48 1188.39,4068.49 1188.30,4068.53 C1187.05,4069.09 1181.52,4073.84 1179.98,4075.78 C1179.92,4075.86 1179.71,4076.16 1179.34,4076.69 C1179.24,4076.84 1179.11,4076.99 1179.00,4077.14 C1178.93,4077.23 1178.78,4077.44 1178.55,4077.75" fill="none" stroke="rgb(255, 255, 255)" stroke-width="4.00" stroke-opacity="1.00" stroke-linejoin="round"/>
</g>
</svg>
