<?xml version="1.0" encoding="utf-8"?>
<!-- Generator: Adobe Illustrator 16.0.0, SVG Export Plug-In . SVG Version: 6.00 Build 0)  -->
<!DOCTYPE svg PUBLIC "-//W3C//DTD SVG 1.0//EN" "http://www.w3.org/TR/2001/REC-SVG-20010904/DTD/svg10.dtd">
<svg version="1.0" id="Layer_1" xmlns="http://www.w3.org/2000/svg" xmlns:xlink="http://www.w3.org/1999/xlink" x="0px" y="0px"
	 width="100px" height="100px" viewBox="0 0 100 100" enable-background="new 0 0 100 100" xml:space="preserve">
<path d="M90,50c0-4.346-2.79-8.011-6.667-9.388v-2.279c0-3.682-2.984-6.666-6.666-6.666H66.055
	c-1.006-2.829-3.226-5.049-6.055-6.055v-2.279c0-3.682-2.985-6.666-6.667-6.666H29.388C28.008,12.793,24.349,10,20,10
	c-5.521,0-10,4.479-10,10c0,5.524,4.479,10,10,10c4.349,0,8.011-2.79,9.388-6.667h23.945v2.279
	c-2.825,1.006-5.049,3.229-6.055,6.055h-5.611c-3.682,0-6.667,2.984-6.667,6.666v8.334h-5.612C28.008,42.793,24.349,40,20,40
	c-5.521,0-10,4.479-10,10c0,5.524,4.479,10,10,10c4.349,0,8.011-2.79,9.388-6.667H35c3.682,0,6.667-2.984,6.667-6.666v-8.334h5.611
	C48.655,42.21,52.317,45,56.667,45c4.349,0,8.011-2.79,9.388-6.667h10.612v2.279C72.793,41.992,70,45.654,70,50
	c0,4.349,2.793,8.011,6.667,9.388v2.279H66.055C64.678,57.793,61.016,55,56.667,55c-5.521,0-10,4.479-10,10
	c0,4.353,2.793,8.011,6.666,9.388v2.279H29.388C28.008,72.793,24.349,70,20,70c-5.521,0-10,4.479-10,10c0,5.527,4.479,10,10,10
	c4.349,0,8.011-2.79,9.388-6.667h23.945c3.682,0,6.667-2.984,6.667-6.666v-2.279c2.829-1.006,5.049-3.226,6.055-6.055h10.612
	c3.682,0,6.666-2.984,6.666-6.666v-2.279C87.21,58.011,90,54.349,90,50z"/>
</svg>
