<?xml version="1.0" encoding="utf-8"?>
<!-- Generator: Adobe Illustrator 16.0.0, SVG Export Plug-In . SVG Version: 6.00 Build 0)  -->
<!DOCTYPE svg PUBLIC "-//W3C//DTD SVG 1.0//EN" "http://www.w3.org/TR/2001/REC-SVG-20010904/DTD/svg10.dtd">
<svg version="1.0" id="Layer_1" xmlns="http://www.w3.org/2000/svg" xmlns:xlink="http://www.w3.org/1999/xlink" x="0px" y="0px"
	 width="100px" height="100px" viewBox="0 0 100 100" enable-background="new 0 0 100 100" xml:space="preserve">
<path d="M70,56.667c-9.202,0-16.667,7.461-16.667,16.666C53.333,82.536,60.798,90,70,90s16.667-7.464,16.667-16.667
	C86.667,64.128,79.202,56.667,70,56.667z M80,75.833H67.5v-12.5h5v7.5H80V75.833z"/>
<path d="M66.667,10H20c-3.665,0-6.667,3.001-6.667,6.667v60c0,3.665,3.002,6.666,6.667,6.666h26.667v-10
	C46.667,60.469,57.136,50,70,50h3.333V16.667C73.333,13.001,70.332,10,66.667,10z M23.333,20h33.334v6.667H23.333V20z
	 M36.667,66.667H23.333V60h13.334V66.667z M43.333,53.333h-20v-6.666h20V53.333z M63.333,40h-40v-6.667h40V40z"/>
</svg>
