<svg xmlns="http://www.w3.org/2000/svg" viewBox="0 0 32 32"><title>Artboard-15</title><g id="Stairs"><path d="M6.5,16a.5.5,0,0,0,.354-.146L15,7.707V9.5a.5.5,0,0,0,1,0v-3a.5.5,0,0,0-.5-.5h-3a.5.5,0,0,0,0,1h1.793L6.146,15.146A.5.5,0,0,0,6.5,16Z"/><path d="M25.5,7h-4a.5.5,0,0,0-.5.5V10H18.5a.5.5,0,0,0-.5.5V13H15.5a.5.5,0,0,0-.5.5V16H12.5a.5.5,0,0,0-.5.5V19H9.5a.5.5,0,0,0-.5.5V22H6.5a.5.5,0,0,0-.5.5v3a.5.5,0,0,0,.5.5h19a.5.5,0,0,0,.5-.5V7.5A.5.5,0,0,0,25.5,7ZM25,25H7V23H9.5a.5.5,0,0,0,.5-.5V20h2.5a.5.5,0,0,0,.5-.5V17h2.5a.5.5,0,0,0,.5-.5V14h2.5a.5.5,0,0,0,.5-.5V11h2.5a.5.5,0,0,0,.5-.5V8h3Z"/></g></svg>