<?xml version="1.0" encoding="utf-8"?>
<!-- Generator: Adobe Illustrator 16.0.0, SVG Export Plug-In . SVG Version: 6.00 Build 0)  -->
<!DOCTYPE svg PUBLIC "-//W3C//DTD SVG 1.0//EN" "http://www.w3.org/TR/2001/REC-SVG-20010904/DTD/svg10.dtd">
<svg version="1.0" id="Layer_1" xmlns="http://www.w3.org/2000/svg" xmlns:xlink="http://www.w3.org/1999/xlink" x="0px" y="0px"
	 width="100px" height="100px" viewBox="0 0 100 100" enable-background="new 0 0 100 100" xml:space="preserve">
<path d="M83.333,10H16.667C13.001,10,10,13.001,10,16.667V70c0,3.664,3.001,6.666,6.667,6.666h30v6.666H30V90h40v-6.668H53.334
	v-6.666h29.999C86.998,76.666,90,73.664,90,70V16.667C90,13.001,86.998,10,83.333,10z M73.333,45.527H68.33l0.003-10.325
	L48.981,54.551C45.924,57.604,40.15,60,35.833,60h-9.167v-5h9.167c2.998,0,7.49-1.863,9.612-3.984l19.352-19.349H54.479l-0.006-5H70
	c1.842,0,3.333,1.491,3.333,3.333V45.527z"/>
</svg>
