<?xml version="1.0" encoding="UTF-8" standalone="no"?>
<!DOCTYPE svg PUBLIC "-//W3C//DTD SVG 1.1//EN" "http://www.w3.org/Graphics/SVG/1.1/DTD/svg11.dtd">
<svg width="300.00" height="300.00" viewBox="0.00 0.00 300.00 300.00" xmlns="http://www.w3.org/2000/svg" xmlns:xlink="http://www.w3.org/1999/xlink">
<g stroke-linecap="round" transform="translate(-1107.00, -4807.00)" id="icons_Copy_2">
<path d="M1202.95,4823.44 C1203.13,4823.37 1203.26,4823.30 1203.34,4823.25 C1203.61,4823.08 1203.81,4822.94 1203.93,4822.81 C1204.02,4822.71 1204.08,4822.58 1204.12,4822.42 C1204.13,4822.38 1204.13,4822.33 1204.12,4822.28 C1204.24,4822.27 1200.92,4822.39 1200.03,4822.57 C1199.10,4822.77 1195.91,4824.71 1194.93,4825.41 C1192.69,4827.10 1189.71,4832.16 1187.77,4836.87 C1186.96,4838.91 1186.46,4841.54 1186.64,4842.90 C1186.76,4843.64 1190.11,4850.31 1191.12,4851.28 C1192.89,4852.93 1201.13,4856.67 1203.97,4857.23 C1206.30,4857.67 1214.19,4857.10 1216.09,4856.28 C1217.89,4855.48 1223.45,4851.57 1225.21,4849.50 C1226.96,4847.37 1228.56,4843.38 1228.64,4840.96 C1228.66,4840.00 1228.36,4837.29 1228.13,4836.29 C1227.66,4834.45 1223.62,4830.30 1220.40,4827.88 C1217.36,4825.64 1211.37,4823.58 1209.52,4823.44 C1209.41,4823.44 1201.37,4824.47 1200.62,4824.69 C1199.25,4825.11 1196.08,4827.89 1195.22,4829.43 C1194.96,4829.91 1194.59,4830.88 1194.12,4832.35 C1193.90,4833.10 1193.78,4833.53 1193.76,4833.66 C1193.73,4833.85 1193.68,4834.37 1193.61,4835.22" fill="none" stroke="rgb(255, 255, 255)" stroke-width="7.78" stroke-opacity="1.00" stroke-linejoin="round"/>
<path d="M1207.62,4965.89 C1207.62,4965.83 1207.62,4965.76 1207.62,4965.70 C1207.62,4965.55 1207.62,4965.40 1207.62,4965.26 C1207.62,4965.13 1207.62,4965.00 1207.62,4964.87 C1207.62,4964.82 1207.62,4964.77 1207.62,4964.72 C1207.68,4964.72 1207.74,4964.72 1207.80,4964.72 C1207.91,4964.72 1208.01,4964.72 1208.12,4964.72 C1208.22,4964.72 1208.31,4964.72 1208.41,4964.72 C1208.47,4964.72 1208.53,4964.72 1208.59,4964.72 C1208.59,4964.74 1205.58,4964.69 1205.00,4964.72 C1202.19,4964.90 1196.96,4968.58 1195.93,4970.17 C1194.84,4971.97 1192.22,4979.14 1191.93,4980.49 C1191.43,4983.07 1192.70,4988.92 1194.42,4991.40 C1195.85,4993.37 1198.03,4995.18 1200.12,4996.04 C1203.51,4997.36 1211.37,4997.57 1215.25,4996.63 C1218.98,4995.67 1224.74,4991.70 1226.23,4989.66 C1227.63,4987.64 1228.85,4981.47 1228.43,4978.53 C1227.98,4975.75 1225.61,4970.94 1223.84,4968.55 C1222.98,4967.44 1220.86,4965.68 1219.23,4964.80 C1216.76,4963.50 1211.18,4963.62 1207.91,4963.43 C1206.10,4963.42 1202.75,4965.86 1202.08,4966.62 C1201.43,4967.37 1200.77,4968.27 1200.11,4969.32 C1199.80,4969.81 1199.51,4970.42 1199.23,4971.14 C1198.90,4972.06 1198.58,4972.97 1198.25,4973.88" fill="none" stroke="rgb(255, 255, 255)" stroke-width="7.78" stroke-opacity="1.00" stroke-linejoin="round"/>
<path d="M1207.62,5068.64 C1207.55,5068.64 1207.49,5068.64 1207.43,5068.64 C1207.19,5068.65 1207.05,5068.65 1206.99,5068.64 C1206.91,5068.63 1206.78,5068.59 1206.60,5068.52 C1206.52,5068.38 1206.47,5068.28 1206.46,5068.23 C1206.43,5068.13 1206.43,5068.02 1206.46,5067.90 C1206.47,5067.76 1206.47,5067.67 1206.46,5067.63 C1206.33,5067.45 1206.13,5067.40 1205.87,5067.47 C1204.01,5068.05 1200.09,5071.05 1198.99,5073.96 C1198.26,5076.00 1197.81,5078.50 1197.87,5080.38 C1197.97,5082.27 1198.76,5085.18 1199.64,5086.87 C1200.48,5088.41 1202.34,5090.68 1203.56,5091.67 C1205.73,5093.35 1211.27,5094.43 1214.80,5094.44 C1218.32,5094.40 1223.87,5092.69 1225.90,5091.00 C1227.58,5089.55 1230.60,5085.08 1231.61,5083.00 C1232.71,5080.67 1233.54,5076.15 1232.82,5073.89 C1232.07,5071.71 1228.71,5066.74 1226.63,5064.61 C1225.59,5063.60 1223.38,5062.23 1221.71,5061.63 C1219.88,5061.00 1215.88,5061.50 1214.63,5061.63 C1214.07,5061.71 1212.61,5061.82 1210.51,5063.01 C1206.76,5065.22 1204.15,5067.96 1203.39,5069.44 C1203.11,5070.00 1202.75,5071.08 1202.30,5072.65 C1202.10,5073.39 1201.98,5073.88 1201.93,5074.11 C1201.83,5074.72 1201.74,5075.34 1201.64,5075.95" fill="none" stroke="rgb(255, 255, 255)" stroke-width="7.78" stroke-opacity="1.00" stroke-linejoin="round"/>
<path d="M1206.46,4857.30 C1206.53,4857.30 1206.61,4857.30 1206.69,4857.30 C1206.91,4857.30 1207.04,4857.30 1207.08,4857.30 C1207.26,4857.31 1207.35,4857.31 1207.38,4857.30 C1207.41,4857.30 1207.48,4857.27 1207.57,4857.22 C1207.59,4857.10 1207.61,4857.02 1207.62,4856.99 C1207.69,4856.91 1207.79,4857.06 1207.91,4857.45 C1208.57,4859.54 1208.80,4861.67 1208.53,4863.98 C1207.82,4870.37 1206.75,4880.19 1206.48,4891.91 C1206.41,4908.60 1206.41,4937.21 1206.46,4937.43 C1206.69,4938.48 1207.66,4941.19 1207.65,4942.57 C1207.64,4944.09 1207.55,4946.40 1207.70,4946.84 C1208.21,4947.72 1208.83,4948.93 1208.50,4949.54 C1208.50,4949.54 1195.95,4933.20 1195.95,4933.20" fill="none" stroke="rgb(255, 255, 255)" stroke-width="7.78" stroke-opacity="1.00" stroke-linejoin="round"/>
<path d="M1211.13,4948.38 C1211.08,4948.48 1211.04,4948.56 1211.01,4948.61 C1210.92,4948.76 1210.82,4948.89 1210.71,4949.00 C1210.59,4949.14 1210.49,4949.24 1210.39,4949.30 C1210.23,4949.39 1210.14,4949.48 1210.12,4949.57 C1210.10,4949.69 1210.09,4950.05 1210.10,4950.64 C1211.53,4948.44 1215.87,4937.39 1221.05,4927.07 C1221.19,4926.79 1221.33,4926.50 1221.48,4926.19" fill="none" stroke="rgb(255, 255, 255)" stroke-width="7.78" stroke-opacity="1.00" stroke-linejoin="round"/>
<path d="M1225.14,4851.47 C1225.07,4851.47 1225.01,4851.47 1224.94,4851.47 C1224.80,4851.47 1224.65,4851.47 1224.50,4851.47 C1224.37,4851.47 1224.24,4851.47 1224.12,4851.47 C1224.03,4851.38 1223.98,4851.32 1223.97,4851.27 C1223.94,4851.16 1223.99,4851.03 1223.97,4850.92 C1223.96,4850.84 1223.90,4850.74 1223.81,4850.63 C1223.77,4850.59 1223.70,4850.51 1223.58,4850.40 C1223.58,4850.40 1223.51,4850.36 1223.51,4850.36 C1223.51,4850.36 1224.74,4851.49 1224.74,4851.49" fill="none" stroke="rgb(255, 255, 255)" stroke-width="7.78" stroke-opacity="1.00" stroke-linejoin="round"/>
<path d="M1225.14,4853.80 C1225.14,4853.67 1225.14,4853.54 1225.14,4853.41 C1225.14,4853.22 1225.14,4853.02 1225.14,4852.83 C1225.14,4852.76 1225.14,4852.70 1225.14,4852.63 C1225.07,4852.63 1225.01,4852.63 1224.94,4852.63 C1224.82,4852.63 1224.71,4852.63 1224.59,4852.63 C1224.49,4852.63 1224.40,4852.63 1224.30,4852.63 C1224.22,4852.63 1224.14,4852.63 1224.07,4852.63 C1224.03,4852.63 1224.00,4852.63 1223.97,4852.63 C1223.94,4852.24 1223.93,4852.00 1223.94,4851.92 C1223.94,4851.85 1223.96,4851.84 1224.00,4851.88" fill="none" stroke="rgb(255, 255, 255)" stroke-width="7.78" stroke-opacity="1.00" stroke-linejoin="round"/>
<path d="M1210.98,4997.56 C1211.04,5008.89 1213.43,5034.56 1213.46,5035.14 C1213.48,5035.53 1213.45,5045.97 1213.46,5049.88 C1213.31,5049.08 1212.69,5048.32 1210.99,5047.03 C1209.28,5045.74 1204.35,5042.55 1203.10,5041.20 C1202.81,5040.89 1202.38,5040.35 1201.79,5039.59 C1201.79,5039.59 1201.92,5039.45 1201.92,5039.45" fill="none" stroke="rgb(255, 255, 255)" stroke-width="7.78" stroke-opacity="1.00" stroke-linejoin="round"/>
<path d="M1216.96,5047.62 C1216.81,5047.61 1216.68,5047.61 1216.57,5047.62 C1216.23,5047.63 1216.03,5047.63 1215.99,5047.62 C1215.77,5047.54 1215.80,5047.34 1216.09,5047.04 C1221.30,5041.53 1227.97,5033.40 1228.64,5032.15 C1229.03,5031.41 1229.20,5030.83 1229.15,5030.40 C1229.13,5030.25 1228.98,5030.15 1228.70,5030.11" fill="none" stroke="rgb(255, 255, 255)" stroke-width="7.78" stroke-opacity="1.00" stroke-linejoin="round"/>
<path d="M1209.96,4997.42 C1209.93,4997.42 1209.91,4997.42 1209.88,4997.42 C1209.81,4997.42 1209.73,4997.42 1209.66,4997.42 C1209.57,4997.42 1209.47,4997.42 1209.37,4997.42 C1209.20,4997.42 1209.03,4997.42 1208.86,4997.42 C1208.86,4997.42 1209.96,4998.00 1209.96,4998.00 C1209.89,4998.81 1211.09,5003.03 1211.14,5005.34 C1211.15,5006.05 1211.13,5006.77 1211.13,5007.49 C1211.13,5008.51 1211.13,5009.53 1211.13,5010.55 C1211.13,5010.84 1211.13,5011.13 1211.13,5011.41" fill="none" stroke="rgb(255, 255, 255)" stroke-width="7.78" stroke-opacity="1.00" stroke-linejoin="round"/>
<path d="M1308.81,4886.88 C1308.94,4886.75 1309.07,4886.62 1309.20,4886.49 C1309.40,4886.30 1309.59,4886.10 1309.79,4885.91 C1309.91,4885.78 1309.98,4885.72 1309.98,4885.72 C1310.01,4885.70 1310.05,4885.72 1310.08,4885.72 C1310.16,4885.71 1310.25,4885.68 1310.34,4885.63 C1310.40,4885.59 1310.51,4885.51 1310.65,4885.38 C1310.78,4885.27 1310.87,4885.17 1310.92,4885.09 C1310.96,4885.02 1311.04,4884.86 1311.15,4884.62 C1310.21,4884.62 1309.55,4884.70 1309.18,4884.84 C1307.71,4885.42 1302.79,4890.08 1301.95,4891.85 C1301.05,4893.87 1300.52,4897.95 1300.86,4900.31 C1301.22,4902.58 1303.08,4906.36 1304.73,4908.34 C1306.33,4910.22 1309.77,4912.85 1311.44,4913.52 C1315.08,4914.92 1319.85,4914.90 1323.34,4914.39 C1325.68,4913.99 1331.27,4911.25 1333.84,4908.85 C1335.13,4907.62 1337.44,4904.12 1338.08,4902.50 C1338.65,4900.92 1339.20,4897.06 1339.10,4895.35 C1338.97,4893.69 1337.89,4889.67 1337.20,4888.42 C1336.54,4887.26 1334.20,4884.74 1332.82,4883.53 C1330.75,4881.79 1325.79,4880.91 1321.77,4880.92 C1317.80,4880.99 1312.35,4882.69 1309.16,4885.20 C1306.56,4887.32 1303.84,4891.04 1303.56,4891.92 C1303.45,4892.27 1303.32,4893.00 1303.17,4894.12" fill="none" stroke="rgb(255, 255, 255)" stroke-width="7.78" stroke-opacity="1.00" stroke-linejoin="round"/>
<path d="M1229.42,4848.35 C1229.44,4848.30 1229.41,4848.25 1229.34,4848.20 C1228.99,4847.95 1228.82,4847.75 1228.83,4847.62 C1228.92,4846.89 1229.24,4846.53 1229.78,4846.53 C1230.03,4846.54 1238.61,4853.57 1241.07,4855.26 C1247.33,4859.52 1262.37,4866.72 1269.26,4869.95 C1282.06,4875.98 1291.26,4879.88 1291.30,4879.88 C1290.31,4879.44 1288.60,4878.71 1288.09,4878.86 C1287.70,4878.97 1278.17,4883.12 1274.25,4884.06 C1273.14,4884.31 1272.18,4884.48 1271.38,4884.55 C1271.11,4884.57 1270.55,4884.57 1269.70,4884.55 C1269.53,4884.54 1269.36,4884.54 1269.21,4884.55" fill="none" stroke="rgb(255, 255, 255)" stroke-width="7.78" stroke-opacity="1.00" stroke-linejoin="round"/>
<path d="M1291.30,4878.71 C1291.29,4878.77 1291.29,4878.82 1291.30,4878.86 C1291.32,4878.99 1291.36,4879.11 1291.42,4879.21 C1291.50,4879.35 1291.59,4879.47 1291.71,4879.55 C1291.77,4879.59 1291.87,4879.64 1292.03,4879.70 C1292.27,4879.51 1292.41,4879.36 1292.45,4879.25 C1292.54,4878.99 1292.52,4878.64 1292.39,4878.20 C1292.30,4877.88 1288.44,4869.61 1288.23,4868.79 C1287.96,4867.71 1287.57,4865.20 1287.07,4864.84 C1286.86,4864.71 1286.71,4864.52 1286.63,4864.26 C1286.60,4864.17 1286.60,4863.99 1286.63,4863.74" fill="none" stroke="rgb(255, 255, 255)" stroke-width="7.78" stroke-opacity="1.00" stroke-linejoin="round"/>
<path d="M1302.98,4912.57 C1303.07,4912.57 1303.17,4912.57 1303.27,4912.57 C1303.42,4912.57 1303.58,4912.57 1303.73,4912.57 C1303.91,4912.57 1304.01,4912.57 1304.03,4912.57 C1304.10,4912.57 1304.14,4912.57 1304.14,4912.57 C1304.15,4912.57 1304.20,4912.51 1304.30,4912.41 C1304.33,4912.38 1304.44,4912.28 1304.61,4912.10 C1304.77,4911.95 1304.86,4911.85 1304.89,4911.82 C1305.06,4911.65 1305.15,4911.56 1305.17,4911.55 C1305.26,4911.46 1305.36,4911.42 1305.46,4911.40 C1305.50,4911.40 1305.69,4911.40 1306.04,4911.40 C1306.14,4911.41 1306.29,4911.41 1306.48,4911.40 C1304.89,4912.20 1303.92,4912.74 1302.13,4913.87 C1292.21,4920.11 1265.58,4942.78 1255.11,4950.49 C1247.91,4955.94 1239.53,4964.22 1238.76,4963.94 C1238.76,4963.94 1238.76,4965.11 1238.76,4965.11 C1238.76,4961.56 1238.76,4952.83 1238.90,4952.41 C1239.01,4952.12 1239.35,4951.68 1239.93,4951.10" fill="none" stroke="rgb(255, 255, 255)" stroke-width="7.78" stroke-opacity="1.00" stroke-linejoin="round"/>
<path d="M1241.09,4967.45 C1240.96,4967.45 1240.83,4967.45 1240.70,4967.45 C1240.51,4967.45 1240.31,4967.45 1240.12,4967.45 C1240.06,4967.45 1239.99,4967.45 1239.93,4967.45 C1240.13,4967.12 1240.33,4966.87 1240.51,4966.72 C1241.17,4966.17 1242.58,4965.47 1243.60,4965.25 C1245.63,4964.82 1254.05,4963.41 1258.48,4962.68 C1264.93,4961.63 1265.46,4961.56 1265.61,4961.61" fill="none" stroke="rgb(255, 255, 255)" stroke-width="7.78" stroke-opacity="1.00" stroke-linejoin="round"/>
<path d="M1201.39,4834.34 C1201.39,4834.28 1201.39,4834.21 1201.39,4834.15 C1201.39,4834.00 1201.39,4833.86 1201.39,4833.71 C1201.40,4833.48 1201.40,4833.35 1201.39,4833.32 C1201.39,4833.23 1201.39,4833.18 1201.39,4833.17 C1201.41,4833.13 1201.44,4833.07 1201.48,4833.00 C1201.58,4832.86 1201.66,4832.75 1201.73,4832.67 C1201.82,4832.57 1201.93,4832.49 1202.02,4832.39 C1202.11,4832.29 1202.20,4832.15 1202.29,4831.98 C1202.33,4831.91 1202.40,4831.77 1202.49,4831.57 C1201.55,4831.19 1200.22,4831.67 1198.91,4833.25 C1197.62,4834.83 1196.31,4837.36 1196.14,4838.59 C1195.89,4841.03 1197.74,4845.05 1199.79,4846.31 C1200.92,4846.97 1203.06,4847.52 1204.38,4847.48 C1205.74,4847.40 1207.85,4846.64 1208.98,4845.82 C1210.04,4845.00 1211.59,4843.01 1212.06,4841.82 C1212.56,4840.42 1212.40,4838.40 1211.71,4836.64 C1211.06,4835.11 1209.45,4833.37 1207.96,4832.66 C1206.54,4832.04 1203.14,4831.73 1201.47,4832.08 C1199.80,4832.47 1196.72,4834.22 1195.56,4835.44 C1194.44,4836.67 1192.92,4839.91 1192.64,4841.64 C1192.39,4843.44 1192.95,4847.07 1193.73,4848.64 C1194.58,4850.21 1197.19,4852.45 1198.84,4853.02 C1200.52,4853.54 1204.05,4853.34 1205.92,4852.66 C1207.72,4851.95 1210.50,4849.84 1211.61,4848.35 C1212.64,4846.89 1213.78,4843.58 1213.80,4841.93 C1213.78,4840.26 1212.64,4837.14 1211.61,4835.87 C1210.55,4834.65 1207.93,4833.11 1206.36,4832.74 C1204.94,4832.45 1202.09,4832.64 1201.03,4833.10 C1199.98,4833.61 1198.34,4835.52 1197.82,4836.82 C1197.32,4838.20 1197.03,4841.46 1197.31,4843.10 C1197.65,4844.87 1199.22,4847.90 1200.37,4848.94 C1201.63,4849.98 1204.79,4850.78 1206.50,4850.47 C1209.53,4849.84 1214.32,4845.08 1215.19,4843.32 C1216.11,4841.29 1216.86,4838.05 1216.72,4836.17 C1216.55,4834.44 1215.37,4831.92 1214.31,4831.06 C1213.26,4830.28 1210.53,4829.70 1209.13,4829.96 C1207.64,4830.30 1204.99,4831.99 1203.88,4833.32 C1202.84,4834.64 1201.44,4837.90 1201.18,4839.60 C1200.97,4841.25 1201.43,4844.62 1202.05,4845.94 C1202.76,4847.34 1204.91,4849.21 1206.14,4849.52 C1206.91,4849.69 1210.34,4849.23 1211.10,4848.94 C1211.96,4848.59 1213.78,4847.08 1214.31,4846.38 C1214.49,4846.14 1214.86,4845.58 1215.40,4844.72" fill="none" stroke="rgb(255, 255, 255)" stroke-width="7.78" stroke-opacity="1.00" stroke-linejoin="round"/>
<path d="M1193.81,4841.35 C1193.64,4841.48 1193.48,4841.61 1193.32,4841.74 C1192.91,4842.07 1192.66,4842.26 1192.59,4842.32 C1192.35,4842.51 1192.22,4842.61 1192.20,4842.63 C1192.13,4842.71 1192.08,4842.81 1192.05,4842.93 C1192.05,4842.96 1192.05,4843.01 1192.05,4843.07 C1192.72,4840.22 1193.28,4838.56 1194.44,4836.41 C1195.41,4834.60 1197.03,4831.60 1197.67,4830.40 C1197.67,4830.40 1193.22,4837.41 1193.22,4837.41 C1193.22,4837.41 1194.32,4832.66 1194.32,4832.66 C1194.32,4832.66 1191.25,4837.04 1191.25,4837.04 C1192.20,4837.30 1195.51,4833.94 1197.49,4831.93 C1198.04,4831.37 1198.59,4830.81 1199.13,4830.26 C1199.13,4830.26 1194.61,4843.03 1194.61,4843.03 C1194.61,4843.03 1204.82,4829.53 1204.82,4829.53 C1204.82,4829.53 1197.60,4846.46 1197.60,4846.46 C1197.60,4846.46 1208.55,4830.69 1208.55,4830.69 C1208.55,4830.69 1201.69,4846.46 1201.69,4846.46 C1201.69,4846.46 1211.98,4833.10 1211.98,4833.10 C1211.76,4833.65 1207.89,4840.15 1206.12,4843.91 C1205.08,4846.14 1204.64,4847.59 1204.46,4849.01 C1204.46,4849.01 1216.43,4834.20 1216.43,4834.20 C1216.43,4834.20 1208.04,4849.67 1208.04,4849.67 C1208.04,4849.67 1218.33,4836.31 1218.33,4836.31 C1218.33,4836.31 1210.74,4848.21 1210.74,4848.21 C1211.09,4848.62 1219.05,4842.60 1219.42,4842.51 C1219.70,4842.45 1220.09,4842.62 1220.59,4843.03 C1220.59,4843.03 1209.20,4856.02 1209.20,4856.02 C1209.15,4856.83 1213.11,4853.48 1216.94,4849.35 C1220.43,4845.47 1222.88,4842.24 1223.14,4840.76 C1223.54,4838.10 1223.25,4835.32 1222.27,4833.76 C1220.73,4831.40 1218.30,4830.01 1217.81,4830.18 C1218.33,4831.12 1219.89,4833.32 1220.44,4834.20 C1221.61,4836.12 1221.91,4838.71 1221.17,4840.47 C1220.53,4841.87 1215.17,4845.93 1212.05,4847.26 C1208.87,4848.57 1201.99,4849.67 1199.06,4849.37 C1197.73,4849.22 1195.08,4848.39 1194.24,4847.84 C1192.42,4846.56 1191.04,4842.12 1191.62,4839.74 C1191.87,4838.77 1192.92,4836.67 1193.73,4835.36 C1194.46,4834.28 1195.81,4833.13 1197.02,4832.81 C1198.16,4832.52 1201.64,4832.18 1204.10,4832.01 C1200.49,4833.20 1197.48,4835.70 1196.13,4837.45 C1195.25,4838.63 1194.42,4840.29 1193.93,4841.91 C1193.55,4843.30 1194.00,4846.67 1194.90,4847.84 C1195.24,4848.27 1196.00,4848.69 1197.16,4849.08 C1198.75,4848.17 1199.50,4847.23 1200.05,4845.04 C1201.61,4839.11 1203.00,4834.61 1204.17,4832.74 C1204.88,4831.64 1206.57,4829.76 1207.38,4829.23 C1208.21,4828.73 1210.47,4828.29 1211.54,4828.43 C1213.92,4828.80 1219.61,4832.33 1220.15,4833.68 C1220.29,4834.06 1220.44,4834.94 1220.59,4836.31 C1219.30,4837.40 1217.30,4837.87 1215.84,4836.97 C1214.41,4836.05 1213.22,4833.07 1213.58,4831.50 C1213.94,4830.08 1215.56,4829.11 1217.81,4828.50 C1215.27,4827.06 1213.60,4826.49 1211.05,4826.32 C1208.57,4826.19 1206.48,4826.62 1205.04,4827.56 C1203.99,4828.29 1201.31,4832.34 1200.30,4834.93 C1199.35,4837.47 1199.14,4839.71 1199.06,4842.37 C1199.06,4842.37 1197.97,4836.09 1197.97,4836.09 C1196.73,4836.63 1195.07,4837.91 1194.90,4838.87 C1194.76,4839.64 1194.98,4840.32 1195.56,4840.91 C1195.77,4841.11 1196.20,4841.26 1196.86,4841.35" fill="none" stroke="rgb(255, 255, 255)" stroke-width="7.78" stroke-opacity="1.00" stroke-linejoin="round"/>
<path d="M1207.23,5081.87 C1207.15,5081.85 1207.09,5081.85 1207.04,5081.87 C1206.92,5081.92 1206.77,5082.01 1206.60,5082.16 C1206.43,5082.32 1206.26,5082.47 1206.09,5082.63 C1205.95,5082.75 1205.80,5082.85 1205.65,5082.92 C1205.59,5082.95 1205.48,5082.99 1205.33,5083.04 C1205.05,5082.82 1204.86,5082.64 1204.76,5082.49 C1204.26,5081.73 1204.04,5079.22 1204.39,5077.49 C1204.78,5075.67 1208.21,5071.60 1210.22,5070.85 C1211.15,5070.54 1213.35,5070.54 1214.24,5070.85 C1215.14,5071.20 1216.93,5072.73 1217.45,5073.62 C1218.60,5075.76 1218.23,5081.48 1217.01,5083.26 C1215.99,5084.67 1215.02,5085.55 1214.09,5085.88 C1212.51,5086.42 1209.39,5085.26 1208.32,5084.08 C1207.11,5082.62 1206.15,5080.84 1205.80,5079.39 C1205.48,5077.92 1205.66,5075.59 1206.20,5074.38 C1206.77,5073.19 1208.47,5071.58 1209.80,5070.97 C1211.21,5070.36 1213.92,5070.06 1215.68,5070.29 C1217.42,5070.56 1219.95,5071.61 1221.05,5072.53 C1222.12,5073.48 1222.95,5075.37 1222.86,5076.65 C1222.73,5077.87 1221.66,5079.95 1220.59,5081.11 C1219.56,5082.19 1217.35,5083.72 1216.08,5084.23 C1214.70,5084.75 1212.59,5084.80 1211.40,5084.33 C1210.27,5083.85 1208.74,5082.35 1208.21,5081.21 C1207.70,5080.00 1207.68,5077.88 1208.19,5076.59 C1208.73,5075.33 1210.45,5073.38 1211.80,5072.49 C1213.22,5071.61 1215.86,5070.85 1217.52,5070.85 C1219.15,5070.90 1221.54,5071.71 1222.66,5072.59 C1223.71,5073.48 1224.71,5075.36 1224.81,5076.62 C1224.86,5077.86 1224.17,5080.00 1223.32,5081.28 C1222.46,5082.51 1220.39,5084.47 1219.06,5085.31 C1217.57,5086.20 1215.06,5086.87 1213.50,5086.77 C1211.93,5086.62 1209.63,5085.59 1208.36,5084.50 C1207.23,5083.48 1205.85,5081.48 1205.47,5080.32 C1205.13,5079.17 1205.29,5077.24 1205.82,5076.19 C1206.93,5074.18 1212.74,5071.08 1216.40,5070.59 C1218.28,5070.37 1221.12,5070.49 1222.35,5070.86 C1223.58,5071.27 1224.86,5072.50 1225.18,5073.59 C1225.67,5075.56 1223.56,5081.39 1221.50,5083.95 C1220.33,5085.35 1218.14,5087.17 1216.73,5087.87 C1215.28,5088.55 1212.89,5088.87 1211.56,5088.55 C1210.23,5088.18 1208.52,5086.79 1207.76,5085.50 C1207.09,5084.26 1206.54,5081.83 1206.62,5080.41 C1206.74,5078.96 1207.63,5076.74 1208.54,5075.61 C1210.29,5073.59 1215.69,5071.67 1218.60,5071.78 C1220.04,5071.90 1221.90,5073.41 1221.97,5074.86 C1221.99,5076.40 1219.12,5080.34 1217.52,5080.78 C1215.93,5081.17 1212.83,5080.10 1211.99,5079.16 C1211.07,5078.01 1210.47,5076.53 1210.47,5075.34 C1210.51,5074.14 1211.29,5072.23 1212.13,5071.22 C1213.75,5069.40 1217.68,5068.43 1221.60,5068.79 C1224.07,5069.03 1224.56,5069.01 1224.45,5068.74 C1223.33,5068.29 1221.09,5067.31 1220.37,5067.28 C1217.50,5067.18 1211.58,5070.12 1210.09,5071.10 C1208.18,5072.39 1204.28,5076.31 1203.07,5079.17 C1202.44,5080.76 1202.44,5083.88 1203.15,5085.15 C1204.03,5086.63 1206.87,5088.32 1208.91,5088.73 C1210.00,5088.91 1213.29,5088.55 1214.24,5088.15 C1216.10,5087.31 1222.55,5080.73 1223.21,5078.95 C1223.51,5078.06 1223.52,5074.74 1223.14,5073.92 C1222.42,5072.49 1219.61,5070.27 1217.52,5069.46 C1215.72,5068.82 1212.39,5068.71 1210.95,5069.25 C1209.39,5069.89 1208.05,5072.08 1207.52,5074.50 C1207.10,5076.73 1207.60,5082.56 1208.77,5084.35 C1209.38,5085.24 1211.51,5086.72 1212.63,5087.05 C1215.17,5087.72 1220.31,5086.40 1222.34,5084.72 C1222.85,5084.26 1224.50,5082.22 1224.82,5081.43 C1225.56,5079.45 1225.97,5075.74 1225.55,5073.84 C1224.75,5070.52 1222.05,5069.63 1220.95,5069.76 C1220.32,5070.64 1220.03,5072.09 1220.59,5073.33 C1221.30,5074.86 1223.14,5076.33 1225.23,5077.17 C1227.26,5077.98 1228.87,5078.99 1229.20,5079.83 C1229.45,5080.65 1228.53,5082.76 1227.45,5083.62 C1226.10,5084.63 1221.71,5086.38 1220.44,5086.32 C1219.96,5086.29 1219.28,5086.00 1218.40,5085.45 C1218.42,5083.41 1219.54,5080.78 1221.32,5079.61 C1221.82,5079.27 1222.77,5078.93 1224.16,5078.59 C1224.16,5078.59 1225.62,5079.75 1225.62,5079.75 C1225.46,5083.14 1223.67,5084.91 1222.85,5085.15 C1222.75,5084.17 1223.39,5082.22 1224.45,5081.07 C1225.59,5079.84 1227.18,5079.83 1228.54,5080.63 C1229.05,5082.03 1228.79,5083.80 1227.52,5084.86 C1226.10,5085.99 1222.97,5085.70 1221.61,5084.21 C1219.16,5081.40 1220.45,5077.99 1220.95,5077.64 C1221.17,5078.28 1220.89,5079.68 1220.15,5080.56 C1219.31,5081.53 1217.43,5081.88 1216.50,5081.36 C1216.33,5081.25 1216.13,5080.98 1215.92,5080.56 C1215.69,5080.04 1215.57,5079.75 1215.55,5079.68 C1215.51,5079.48 1215.47,5079.02 1215.41,5078.28" fill="none" stroke="rgb(255, 255, 255)" stroke-width="7.78" stroke-opacity="1.00" stroke-linejoin="round"/>
<path d="M1207.23,4980.29 C1207.29,4980.23 1207.34,4980.18 1207.38,4980.14 C1207.50,4979.99 1207.60,4979.82 1207.73,4979.68 C1207.93,4979.41 1208.05,4979.16 1208.07,4978.94 C1208.17,4978.05 1208.09,4977.33 1207.82,4976.79 C1207.65,4976.44 1207.17,4975.94 1206.39,4975.27 C1204.44,4976.38 1203.33,4977.48 1202.72,4979.24 C1202.10,4981.09 1201.75,4983.48 1201.77,4985.70 C1201.83,4987.62 1202.44,4989.93 1203.22,4990.80 C1204.05,4991.65 1206.63,4992.23 1208.25,4991.97 C1209.88,4991.65 1213.20,4990.05 1214.60,4988.90 C1215.98,4987.73 1217.68,4985.15 1217.96,4983.79 C1218.18,4982.49 1217.53,4979.81 1216.72,4978.68 C1215.82,4977.52 1213.18,4975.93 1211.61,4975.62 C1209.98,4975.35 1206.65,4975.94 1205.12,4976.79 C1203.62,4977.67 1201.30,4980.26 1200.59,4981.82 C1199.94,4983.37 1199.69,4986.52 1200.08,4988.10 C1200.53,4989.69 1202.37,4992.27 1203.73,4993.13 C1205.15,4993.97 1208.55,4994.57 1210.37,4994.30 C1212.18,4993.99 1215.47,4992.42 1216.87,4991.24 C1218.16,4990.07 1219.76,4987.41 1220.00,4985.98 C1220.20,4984.50 1219.46,4981.49 1218.54,4980.00 C1217.58,4978.53 1214.89,4976.20 1213.36,4975.55 C1211.76,4974.92 1208.58,4974.92 1207.01,4975.55 C1205.51,4976.21 1202.89,4978.54 1201.91,4980.07 C1200.98,4981.59 1199.97,4984.92 1199.94,4986.57 C1199.94,4988.14 1200.87,4991.16 1201.69,4992.19 C1202.60,4993.24 1205.45,4994.50 1207.09,4994.52 C1210.05,4994.49 1214.89,4992.44 1216.76,4991.28 C1217.85,4990.57 1220.20,4988.34 1221.10,4987.00 C1222.05,4985.54 1222.71,4982.05 1222.41,4980.36 C1222.06,4978.69 1220.26,4975.68 1218.91,4974.45 C1217.57,4973.30 1214.40,4971.85 1212.71,4971.61 C1211.09,4971.42 1207.78,4971.99 1206.28,4972.70 C1204.78,4973.47 1202.32,4975.71 1201.39,4977.15 C1200.56,4978.53 1199.48,4981.84 1199.35,4983.43 C1199.26,4985.02 1199.91,4988.16 1200.59,4989.49 C1201.39,4990.90 1203.69,4992.75 1205.26,4993.13 C1207.92,4993.73 1212.80,4992.71 1214.76,4992.01 C1215.95,4991.56 1218.55,4990.04 1219.78,4988.97 C1221.09,4987.80 1222.67,4984.88 1222.85,4983.28 C1222.97,4981.72 1222.11,4978.08 1221.24,4976.42 C1220.29,4974.69 1217.81,4972.08 1216.28,4971.17 C1214.85,4970.37 1211.77,4969.81 1210.37,4970.07 C1209.42,4970.29 1205.80,4972.25 1204.90,4972.99 C1202.58,4975.00 1199.33,4982.09 1199.35,4984.81 C1199.38,4985.67 1200.20,4989.19 1200.52,4989.78 C1201.15,4990.84 1202.64,4991.70 1204.14,4991.89 C1205.94,4992.05 1207.94,4991.65 1209.52,4990.73 C1210.90,4989.90 1212.97,4987.94 1213.78,4986.71 C1214.56,4985.47 1215.19,4983.32 1215.16,4982.02 C1215.09,4980.79 1214.37,4978.63 1213.66,4977.55 C1212.85,4976.40 1211.02,4974.96 1209.65,4974.42 C1208.20,4973.89 1205.98,4973.88 1204.63,4974.38 C1202.38,4975.28 1199.76,4978.57 1198.26,4982.07 C1197.94,4982.84 1197.63,4983.61 1197.31,4984.38 C1196.84,4983.02 1196.76,4981.98 1197.16,4980.61 C1197.94,4978.00 1200.50,4973.37 1202.30,4971.44 C1203.27,4970.41 1204.78,4969.67 1207.52,4968.69 C1205.46,4970.23 1200.03,4971.15 1198.26,4972.34 C1196.95,4973.24 1194.69,4977.68 1194.61,4980.14 C1194.58,4982.56 1197.00,4987.17 1198.33,4987.66 C1199.64,4988.09 1202.41,4988.07 1203.08,4987.44 C1204.88,4985.64 1210.72,4975.96 1211.03,4975.69 C1211.27,4975.48 1211.71,4975.39 1212.34,4975.40 C1212.60,4978.73 1210.72,4981.97 1209.64,4983.14 C1209.06,4982.72 1209.53,4980.76 1210.88,4978.68 C1212.43,4976.36 1214.49,4976.17 1216.06,4976.64 C1215.84,4980.12 1212.84,4981.97 1211.39,4982.11 C1211.12,4980.82 1212.16,4978.52 1213.87,4977.81 C1214.42,4977.58 1215.49,4977.48 1217.08,4977.52 C1218.27,4978.92 1218.43,4980.96 1217.01,4982.26 C1216.63,4982.61 1215.81,4983.04 1214.53,4983.57 C1214.53,4983.57 1213.14,4982.26 1213.14,4982.26 C1213.14,4982.26 1216.87,4976.35 1216.87,4976.35 C1216.87,4976.35 1218.76,4977.01 1218.76,4977.01 C1217.81,4979.43 1217.05,4980.75 1215.81,4981.81 C1214.57,4982.88 1213.08,4983.65 1210.37,4984.74 C1210.37,4984.74 1209.13,4983.72 1209.13,4983.72 C1209.13,4983.72 1213.00,4979.85 1213.00,4979.85 C1213.91,4981.69 1214.11,4982.81 1213.63,4984.29 C1213.12,4985.71 1211.06,4988.33 1209.71,4988.97 C1209.22,4989.21 1208.42,4989.26 1207.31,4989.12 C1206.97,4987.14 1207.08,4985.95 1207.91,4984.73 C1208.74,4983.51 1210.08,4982.79 1212.71,4981.97 C1212.71,4981.97 1214.02,4983.28 1214.02,4983.28 C1212.95,4985.05 1212.07,4985.98 1210.87,4986.36 C1209.67,4986.73 1207.87,4986.95 1206.54,4986.88 C1205.15,4986.79 1204.28,4985.82 1203.29,4983.65 C1204.64,4981.23 1207.79,4978.49 1210.01,4978.32 C1210.45,4978.29 1211.45,4978.34 1213.00,4978.47 C1213.00,4978.47 1213.07,4979.56 1213.07,4979.56 C1211.46,4980.13 1208.99,4980.14 1207.38,4979.20 C1205.46,4978.04 1204.16,4974.84 1204.46,4972.56 C1204.72,4970.99 1208.14,4967.67 1210.30,4966.94 C1212.36,4966.27 1217.83,4966.36 1219.20,4966.86 C1220.93,4967.54 1223.49,4969.34 1224.65,4970.75 C1225.91,4972.40 1226.90,4975.02 1226.54,4976.57 C1225.59,4980.25 1217.75,4989.76 1217.01,4990.65 C1218.69,4988.99 1220.09,4987.13 1220.66,4985.62 C1221.25,4984.00 1220.40,4978.97 1218.91,4976.57 C1218.19,4975.46 1216.18,4973.55 1215.26,4973.14 C1212.99,4972.24 1209.50,4974.00 1208.18,4975.26 C1207.83,4975.60 1207.48,4976.12 1207.13,4976.81" fill="none" stroke="rgb(255, 255, 255)" stroke-width="7.78" stroke-opacity="1.00" stroke-linejoin="round"/>
<path d="M1213.07,5084.79 C1212.99,5084.93 1212.93,5085.03 1212.88,5085.08 C1212.74,5085.22 1212.59,5085.32 1212.44,5085.37 C1212.31,5085.41 1212.18,5085.36 1212.05,5085.37 C1211.94,5085.36 1211.86,5085.33 1211.80,5085.27 C1211.51,5084.91 1211.32,5084.53 1211.23,5084.13 C1210.99,5082.82 1211.48,5080.79 1212.53,5078.63 C1213.68,5076.30 1216.88,5070.73 1218.33,5069.46 C1219.64,5068.35 1224.61,5066.80 1226.21,5067.13 C1228.37,5067.65 1230.90,5069.59 1231.39,5071.36 C1231.75,5072.85 1230.95,5076.66 1230.07,5078.15 C1229.66,5078.83 1227.52,5081.02 1226.50,5082.09 C1225.10,5081.90 1224.36,5080.76 1223.93,5077.61 C1223.48,5074.38 1222.94,5072.04 1222.19,5070.56 C1221.39,5069.04 1219.31,5066.84 1218.11,5066.25 C1216.28,5065.43 1210.76,5065.66 1208.84,5066.69 C1207.02,5067.72 1204.90,5069.48 1203.95,5070.85 C1202.92,5072.43 1202.12,5075.47 1202.71,5076.54 C1202.94,5076.95 1203.66,5077.52 1204.86,5078.24" fill="none" stroke="rgb(255, 255, 255)" stroke-width="7.78" stroke-opacity="1.00" stroke-linejoin="round"/>
<path d="M1313.48,4901.48 C1313.49,4901.70 1313.49,4901.86 1313.48,4901.96 C1313.46,4902.26 1313.41,4902.51 1313.34,4902.69 C1313.25,4902.92 1313.09,4903.10 1312.99,4903.32 C1312.86,4903.56 1312.77,4903.82 1312.64,4904.05 C1312.32,4904.61 1312.05,4904.98 1311.82,4905.18 C1311.66,4905.30 1311.38,4905.41 1310.98,4905.49 C1309.12,4903.73 1308.05,4901.66 1307.86,4899.07 C1307.71,4896.69 1309.27,4891.34 1311.00,4889.29 C1312.65,4887.43 1318.00,4884.56 1320.63,4883.96 C1323.36,4883.39 1327.84,4884.16 1329.32,4885.57 C1330.84,4887.12 1332.10,4891.97 1331.87,4894.98 C1331.63,4897.61 1329.76,4902.80 1328.37,4904.83 C1328.04,4905.30 1325.88,4907.78 1325.23,4908.26 C1323.47,4909.55 1320.86,4910.17 1318.59,4909.87 C1316.59,4909.56 1311.84,4907.16 1310.78,4905.86 C1309.51,4904.19 1308.86,4901.32 1309.25,4899.00 C1309.65,4896.92 1313.10,4892.14 1315.82,4890.17 C1318.35,4888.38 1324.13,4886.25 1326.69,4886.08 C1327.18,4886.06 1330.53,4886.30 1331.22,4886.66 C1333.04,4887.68 1334.69,4889.58 1334.79,4890.85 C1334.90,4893.26 1333.22,4897.86 1331.60,4900.31 C1330.00,4902.67 1325.82,4906.48 1323.41,4907.82 C1320.90,4909.17 1316.79,4909.77 1314.91,4908.79 C1313.06,4907.76 1310.10,4903.73 1309.73,4901.58 C1309.43,4899.43 1311.28,4895.45 1313.15,4893.49 C1315.09,4891.53 1320.18,4888.87 1322.93,4888.44 C1324.44,4888.23 1326.27,4888.31 1327.99,4888.66 C1329.32,4888.98 1332.07,4890.77 1332.68,4892.06 C1333.22,4893.29 1332.86,4896.62 1332.38,4897.90 C1331.30,4900.44 1328.55,4903.86 1326.42,4905.27 C1324.17,4906.70 1319.10,4907.90 1316.88,4907.48 C1314.76,4907.03 1311.18,4904.54 1309.49,4902.53 C1308.70,4901.51 1307.82,4899.20 1308.01,4897.98 C1308.25,4896.67 1309.96,4894.44 1311.20,4893.52 C1313.74,4891.75 1318.70,4889.53 1321.92,4888.66 C1323.52,4888.28 1326.40,4888.56 1327.93,4889.36 C1329.50,4890.23 1330.35,4892.84 1329.98,4894.69 C1329.67,4895.96 1326.45,4900.28 1324.72,4901.70 C1322.86,4903.18 1318.49,4905.02 1316.26,4905.20 C1315.79,4905.22 1312.62,4905.00 1311.88,4904.62 C1309.69,4903.43 1308.15,4900.75 1308.30,4898.41 C1308.47,4896.68 1312.30,4892.18 1315.16,4890.60 C1316.54,4889.88 1320.03,4888.76 1321.36,4888.63 C1322.68,4888.54 1325.53,4889.13 1326.55,4889.66 C1327.49,4890.19 1329.09,4891.95 1329.39,4892.79 C1329.97,4894.65 1327.86,4899.11 1325.60,4901.11 C1323.26,4903.10 1317.85,4904.91 1314.65,4904.76 C1311.74,4904.58 1305.80,4902.56 1304.36,4901.48 C1302.65,4900.11 1302.30,4898.08 1303.49,4896.30 C1304.54,4894.80 1310.01,4891.35 1313.05,4890.39 C1316.15,4889.46 1322.09,4889.25 1323.85,4890.09 C1323.85,4890.09 1324.06,4891.41 1324.06,4891.41 C1322.20,4891.57 1317.51,4892.04 1315.90,4892.98 C1314.22,4894.00 1311.13,4897.80 1310.39,4900.01 C1309.99,4901.20 1310.11,4902.50 1310.64,4904.54 C1312.70,4905.23 1314.11,4905.31 1315.62,4904.63 C1318.17,4903.45 1322.45,4899.98 1324.79,4896.44 C1324.79,4896.44 1316.11,4900.60 1316.11,4900.60 C1320.19,4897.22 1325.52,4893.51 1326.69,4893.52 C1326.95,4893.53 1327.39,4893.73 1328.01,4894.11 C1328.01,4894.11 1319.25,4901.41 1319.25,4901.41 C1319.88,4899.55 1323.39,4896.53 1327.35,4894.76 C1327.35,4894.76 1328.44,4895.79 1328.44,4895.79 C1327.04,4899.47 1325.17,4900.56 1324.14,4900.53 C1323.14,4898.53 1325.41,4896.09 1326.91,4895.20 C1326.91,4895.20 1328.22,4895.71 1328.22,4895.71 C1328.22,4895.71 1325.31,4901.70 1325.31,4901.70 C1325.31,4901.70 1327.13,4899.87 1327.13,4899.87 C1326.69,4900.22 1326.37,4900.58 1326.18,4900.97 C1325.75,4901.81 1325.41,4902.79 1325.16,4903.89 C1325.09,4904.20 1325.13,4904.36 1325.28,4904.37" fill="none" stroke="rgb(255, 255, 255)" stroke-width="7.78" stroke-opacity="1.00" stroke-linejoin="round"/>
<path d="M1201.50,4855.00 C1201.50,4855.00 1214.25,4855.00 1214.25,4855.00 C1214.25,4855.00 1216.25,4854.50 1216.25,4854.50 C1216.25,4854.50 1217.75,4854.00 1217.75,4854.00 C1217.75,4854.00 1219.75,4852.50 1219.75,4852.50 C1219.75,4852.50 1222.00,4850.75 1222.00,4850.75 C1222.00,4850.75 1222.50,4846.25 1222.50,4846.25 C1222.50,4846.25 1223.00,4843.75 1223.00,4843.75 C1223.00,4843.75 1223.50,4842.25 1223.50,4842.25 C1223.50,4842.25 1224.00,4840.25 1224.00,4840.25 C1224.00,4840.25 1224.50,4839.50 1224.50,4839.50" fill="none" stroke="rgb(255, 255, 255)" stroke-width="7.00" stroke-opacity="1.00" stroke-linejoin="round"/>
<path d="M1330.50,4887.00 C1330.50,4887.00 1330.50,4887.25 1330.50,4887.25 C1330.50,4887.25 1331.00,4888.25 1331.00,4888.25 C1331.00,4888.25 1333.50,4891.25 1333.50,4891.25 C1333.50,4891.25 1334.00,4892.25 1334.00,4892.25 C1334.00,4892.25 1334.50,4893.25 1334.50,4893.25 C1334.50,4893.25 1334.50,4894.25 1334.50,4894.25 C1334.50,4894.25 1335.00,4896.25 1335.00,4896.25 C1335.00,4896.25 1335.50,4901.25 1335.50,4901.25 C1335.50,4901.25 1335.00,4902.25 1335.00,4902.25 C1335.00,4902.25 1334.50,4903.25 1334.50,4903.25 C1334.50,4903.25 1332.50,4905.25 1332.50,4905.25 C1332.50,4905.25 1331.25,4907.00 1331.25,4907.00 C1331.25,4907.00 1329.75,4908.00 1329.75,4908.00 C1329.75,4908.00 1327.75,4909.50 1327.75,4909.50 C1327.75,4909.50 1326.75,4910.00 1326.75,4910.00 C1326.75,4910.00 1325.75,4910.00 1325.75,4910.00 C1325.75,4910.00 1320.75,4910.50 1320.75,4910.50 C1320.75,4910.50 1314.75,4911.00 1314.75,4911.00 C1314.75,4911.00 1313.25,4910.50 1313.25,4910.50 C1313.25,4910.50 1312.25,4909.50 1312.25,4909.50 C1312.25,4909.50 1311.25,4909.00 1311.25,4909.00 C1311.25,4909.00 1309.75,4908.00 1309.75,4908.00 C1309.75,4908.00 1308.25,4907.00 1308.25,4907.00 C1308.25,4907.00 1307.00,4906.25 1307.00,4906.25 C1307.00,4906.25 1307.00,4905.25 1307.00,4905.25 C1307.00,4905.25 1306.50,4901.75 1306.50,4901.75 C1306.50,4901.75 1306.00,4894.00 1306.00,4894.00" fill="none" stroke="rgb(255, 255, 255)" stroke-width="7.00" stroke-opacity="1.00" stroke-linejoin="round"/>
<path d="M1207.50,5089.50 C1207.50,5089.50 1208.25,5089.50 1208.25,5089.50 C1208.25,5089.50 1209.25,5090.00 1209.25,5090.00 C1209.25,5090.00 1211.25,5090.50 1211.25,5090.50 C1213.96,5090.93 1216.08,5091.00 1216.75,5091.00 C1216.95,5091.00 1219.96,5089.93 1220.25,5090.00 C1220.25,5090.00 1221.25,5089.50 1221.25,5089.50 C1221.25,5089.50 1222.25,5089.00 1222.25,5089.00 C1222.25,5089.00 1224.00,5086.75 1224.00,5086.75 C1224.00,5086.75 1226.00,5082.25 1226.00,5082.25 C1226.00,5082.25 1227.00,5080.25 1227.00,5080.25 C1227.00,5080.25 1227.50,5078.75 1227.50,5078.75 C1227.50,5078.75 1228.00,5077.25 1228.00,5077.25 C1228.00,5077.25 1228.50,5076.00 1228.50,5076.00" fill="none" stroke="rgb(255, 255, 255)" stroke-width="7.00" stroke-opacity="1.00" stroke-linejoin="round"/>
</g>
</svg>
